<svg width="76" height="76" viewBox="0 0 76 76" fill="none" xmlns="http://www.w3.org/2000/svg">
<circle cx="38" cy="38" r="38" fill="white"/>
<path d="M54.2042 54.2042C58.5017 49.9066 60.916 44.0778 60.916 38.0001C60.916 31.9224 58.5017 26.0936 54.2042 21.7959" stroke="#1E1F27" stroke-width="3" stroke-miterlimit="10" stroke-linecap="round" stroke-linejoin="round"/>
<path d="M21.7959 21.7959C17.4984 26.0936 15.0841 31.9224 15.0841 38.0001C15.0841 44.0778 17.4984 49.9066 21.7959 54.2042" stroke="#1E1F27" stroke-width="3" stroke-miterlimit="10" stroke-linecap="round" stroke-linejoin="round"/>
<path d="M27.6875 27.6876C26.3332 29.0418 25.2589 30.6495 24.5259 32.419C23.7929 34.1884 23.4156 36.0849 23.4156 38.0001C23.4156 39.9154 23.7929 41.8118 24.5259 43.5813C25.2589 45.3507 26.3332 46.9584 27.6875 48.3126" stroke="#1E1F27" stroke-width="3" stroke-miterlimit="10" stroke-linecap="round" stroke-linejoin="round"/>
<path d="M48.3126 48.3126C49.6669 46.9584 50.7412 45.3507 51.4742 43.5813C52.2072 41.8118 52.5844 39.9154 52.5844 38.0001C52.5844 36.0849 52.2072 34.1884 51.4742 32.419C50.7412 30.6495 49.6669 29.0418 48.3126 27.6876" stroke="#1E1F27" stroke-width="3" stroke-miterlimit="10" stroke-linecap="round" stroke-linejoin="round"/>
<ellipse cx="38" cy="38" rx="4.16667" ry="4.16667" fill="#D14671"/>
</svg>
