<svg width="76" height="76" viewBox="0 0 76 76" fill="none" xmlns="http://www.w3.org/2000/svg">
<circle cx="38" cy="38" r="38" fill="#1E1F27"/>
<path d="M56.9902 18.7918C56.9707 18.6843 56.9315 18.5767 56.8729 18.4887C56.8631 18.4692 56.8534 18.4399 56.8436 18.4203C56.8338 18.4008 56.8142 18.391 56.7947 18.3714C56.7556 18.3226 56.7067 18.2737 56.6579 18.2346C56.6188 18.2053 56.5797 18.176 56.5406 18.1466C56.5211 18.1368 56.5113 18.1173 56.4917 18.1075C56.4624 18.0977 56.4233 18.0782 56.3842 18.0684C56.3354 18.0488 56.2864 18.0292 56.2376 18.0195C56.1789 18.0097 56.1203 18 56.0616 18C56.0128 18 55.9639 18 55.915 18C55.8465 18.0098 55.7782 18.0293 55.7195 18.0488C55.6902 18.0587 55.6511 18.0587 55.6217 18.0684L12.5898 36.6713C12.0912 36.8864 11.8664 37.4631 12.0814 37.9617C12.1792 38.1768 12.3454 38.3624 12.5605 38.4602L28.6314 46.0167V61.0417C28.6314 61.5793 29.0713 62.0192 29.609 62.0192C29.9511 62.0192 30.264 61.8433 30.44 61.55L37.2339 50.5037L47.7328 56.0366C48.2118 56.2908 48.7984 56.1051 49.0525 55.6261C49.0916 55.5479 49.121 55.4599 49.1405 55.3816L56.9805 19.1829C56.9805 19.1633 56.9805 19.1437 56.9805 19.1242C56.9903 19.0656 56.9903 19.0167 57 18.9678C56.9999 18.9091 56.9999 18.8505 56.9902 18.7918ZM29.4134 44.2081L15.3758 37.5999L51.7016 21.92L29.4134 44.2081ZM30.5865 57.5713V47.004L35.5035 49.5945L30.5865 57.5713ZM47.5079 53.7002L38.27 48.8418L36.6082 47.8154L36.5398 47.9327L31.2512 45.1467L54.3508 22.0275L47.5079 53.7002Z" fill="white"/>
</svg>
