<svg width="490" height="381" viewBox="0 0 490 381" fill="none" xmlns="http://www.w3.org/2000/svg"><style type="text/css" >.mono { font-family: SFMono-Regular, Menlo, Monaco, Consolas, "Liberation Mono", "Courier New", monospace; }</style><g id="Group 71"><g id="Group 65"><path id="Rectangle 40" d="M0 32H490V375C490 378.314 487.314 381 484 381H5.99999C2.68628 381 0 378.314 0 375V32Z" fill="#282A36"/><text id="1" class="mono" fill="white" xml:space="preserve" style="white-space: pre" font-size="18" font-weight="500" letter-spacing="0em"><tspan x="29.9141" y="87.25">1</tspan></text><text id="2" class="mono" fill="white" xml:space="preserve" style="white-space: pre" font-size="18" font-weight="500" letter-spacing="0em"><tspan x="29.9141" y="154.221">2</tspan></text><text id="5" class="mono" fill="white" xml:space="preserve" style="white-space: pre" font-size="18" font-weight="500" letter-spacing="0em"><tspan x="29.9141" y="355.178">5</tspan></text><path id="Rectangle 14" d="M0 6C0 2.68629 2.68629 0 6 0H484C487.314 0 490 2.68629 490 6V32H0V6Z" fill="#2F313C"/><circle id="Ellipse 11" cx="20.179" cy="16.1441" r="5.38136" fill="#6422F1"/><circle id="Ellipse 12" cx="35.246" cy="16.1441" r="5.38136" fill="#F46591"/><circle id="Ellipse 13" cx="50.3142" cy="16.1441" r="5.38136" fill="#2BD38D"/><g id="Group 64"><rect id="Rectangle 41" x="178.391" y="66.729" width="219.559" height="25.8305" rx="12.9153" fill="white" fill-opacity="0.2"/><rect id="Rectangle 42" x="77.2651" y="66.3457" width="84.3095" height="26.5633" rx="13.2816" fill="white" fill-opacity="0.2"/></g></g><rect id="Rectangle 48" x="76.2211" y="327.359" width="8.61017" height="25.8305" fill="#F35183"/></g></svg>
