<svg width="100pt" height="100pt" version="1.1" viewBox="0 0 100 100" xmlns="http://www.w3.org/2000/svg">
 <g fill="#fff">
  <path d="m89.23 76.617-1.6914 1.6914 3.6914 3.5391-3.6914 3.6914 1.6914 1.6914 5.3867-5.3828z" />
  <path d="m74.309 76.617-5.2305 5.2305 5.2305 5.3828 1.6914-1.6914-3.6914-3.6914 3.6914-3.5391z" />
  <path d="m78.445 91.285-2.0664-1.0234 8.7344-17.648 2.0664 1.0234z" />
  <path d="m81.848 63.383c-1.3828 0-2.6172 0.15234-4 0.46094-2.9219-2.9219-6.4609-4.9219-10.461-6.1523 0.76953-3.5391 0.46094-6.3086-1.3828-8.3086-2.3086-2.6172-6.1523-3.0781-8.7695-2.9219 2.9219-3.2305 5.0781-7.3828 5.2305-12.152 1.3828-1.2305 5.2305-4.6172 5.0781-8.3086-0.15234-3.6914-2.6172-3.8477-3.2305-3.8477h-0.15234l0.61719-5.5391c0.30859-6.6172-2.6172-9.0781-4.7695-10 2.1445-3.0742 1.5312-5.0742 1.5312-5.2305l-0.46094-1.3828-1.2305 0.92188c-1.3828 0.92188-2.7695 1.3828-4.1523 1.3828-0.92187 0-1.5391-0.30859-1.5391-0.30859-4.1523-1.8477-12.922-2.3086-13.383-2.3086-9.0781 0-11.848 4.6172-12.461 6.4609-7.6914 0.92187-7.3828 8.6172-7.2305 12.309v1.6914c0 0.76953 0 1.5391 0.15234 2.3086-1.0781 0-3.0781 0.61719-3.0781 3.8477-0.15234 3.6914 3.6914 7.2305 5.0781 8.3086 0.15234 4.4609 2.1523 8.4609 4.9219 11.691-2.6172 0-6.7695 0.30859-9.0781 2.9219-1.6914 2-2.1523 4.7695-1.2305 8.4609-10.77 3.5391-18.152 13.848-18.152 25.23v4.9219h64.617c2.4609 7.2305 9.3828 12.461 17.383 12.461 10.152 0 18.461-8.3086 18.461-18.461 0.15234-10.148-8.1562-18.457-18.309-18.457zm-17.539-12.461c1.3828 1.5391 1.5391 4 0.46094 7.3828-0.15234 0.30859-3.2305 6.9219-12.461 9.3828-0.61719-1.6914-1.8477-3.0781-3.5391-3.8477 1.3828-0.76953 2.4609-1.6914 3.3828-2.7695 3.5391-4.1523 3.6914-9.8477 3.6914-12.152 2.1562-0.30078 6.4648-0.30078 8.4648 2.0039zm-12.617 23.539c1.0781 0 1.8477 0.92187 1.8477 1.8477 0 1.0781-0.92187 1.8477-1.8477 1.8477-1.0781 0-2-0.92188-2-1.8477 0.15625-0.92578 0.92578-1.8477 2-1.8477zm-9.5391-11.383c-3.2305-0.30859-5.8477-1.5391-7.5391-3.5391-2.6172-3.0781-3.0781-7.5391-3.2305-9.8477 3.5391 2.7695 7.5391 4.4609 11.383 4.4609 3.2305 0 7.3828-1.5391 10.922-4.3086 0 2.4609-0.61719 6.7695-3.2305 9.8477-1.6875 1.8477-4.3047 3.0781-7.5352 3.3867zm-12.922-54.77h0.92188l0.15234-0.92188s1.0781-5.5391 10.461-5.5391c0.15234 0 8.6172 0.46094 12.461 2.1523 0.15234 0 1.0781 0.46094 2.4609 0.46094 1.0781 0 2.1523-0.15234 3.0781-0.61719-0.30469 0.61719-0.91797 1.3867-1.6875 2.3086l-1.6953 1.8477 2.4609 0.15234c0.15234 0 5.0781 0.46094 4.6172 8.1523l-0.61719 5.5391-2.6172 1.0781c-0.61719-0.76953-1.5391-1.0781-2-1.2305-1.2266-0.15234-2.457-0.15234-3.9961-0.15234-2.6172 0-5.0781 0.30859-5.2305 0.30859-2 0.30859-3.3828 0.92188-4 2.1523 0 0.15234 0 0.15234-0.15234 0.30859h-2c0-0.15234 0-0.15234-0.15234-0.30859-0.61719-1.2305-2-2-4-2.1523-0.15234 0-2.6172-0.30859-5.2305-0.30859-1.5391 0-2.9219 0.15234-3.8477 0.30859-0.46094 0.15234-1.3828 0.46094-2 1.2305l-3.0781-1.2305c0-0.61719-0.15234-1.0781-0.15234-1.5391v-1.8477c-0.30859-5.2305-0.003907-9.8438 5.8438-10.152zm28.461 18.309-0.15234 1.0742c-0.46094 2.7695-0.61719 3.2305-2 3.5391 0 0-1.5391 0.30859-3.3828 0.30859-2 0-3.3828-0.46094-4.1523-1.0781-0.30859-0.46094-1.2305-2.1523-2-4.1523 0 0-0.30859-0.76953 0-1.2305s1.0781-0.76953 2.1523-0.92188c0 0 2.4609-0.30859 5.0781-0.30859 1.3828 0 2.6172 0.15234 3.3828 0.30859 0.15234-0.15625 1.5352 0.15234 1.0742 2.4609zm-18.152-0.15625c-0.76953 2-1.6914 3.6914-2 4-0.76953 0.76953-2.1523 1.0781-4.1523 1.0781-1.6914 0-3.2305-0.30859-3.2305-0.30859-1.3828-0.46094-1.5391-0.92188-2-3.6914l-0.15234-1.0781c-0.30859-2.1523 0.76953-2.4609 1.0781-2.6172 0.76953-0.15234 2-0.30859 3.3828-0.30859 2.4609 0 4.9219 0.30859 4.9219 0.30859 1.2305 0.15234 2 0.46094 2.1523 0.92188 0.46094 0.77344 0.15234 1.543 0 1.6953zm-14 7.0781-0.46094-0.30859c-1.3828-1.0781-4.7695-4.1523-4.6172-6.7695 0-1.6914 0.61719-1.6914 1.0781-1.6914 0.61719 0 1.2305-0.30859 1.5391-0.61719l2.6172 1.0781c-0.15234 0.61719-0.15234 1.2305 0 2l0.15234 1.0781c0.46094 2.7695 0.76953 4.6172 3.6914 5.5391 0 0 1.8477 0.30859 3.8477 0.30859 2.7695 0 4.7695-0.61719 6-2l0.15234-0.15234c0-0.15234 1.3828-2.1523 2.3086-4.4609 0 0 0.15234-0.46094 0.30859-0.92188h1.6914c0.15234 0.46094 0.30859 0.76953 0.30859 0.76953 0.92188 2.4609 2.3086 4.4609 2.3086 4.6172l0.15234 0.15234c1.2305 1.2305 3.2305 2 6 2 2 0 3.6914-0.30859 3.8477-0.46094 2.9219-0.92188 3.2305-2.6172 3.6914-5.3828l0.15234-1.0781c0.15234-0.76953 0.15234-1.3828 0-2l2.4609-0.92188c0.30859 0.15234 0.61719 0.30859 0.92188 0.30859h0.46094 0.46094c0.30859 0 0.92188 0 0.92188 1.6914 0 2.6172-3.3828 5.8477-4.6172 6.7695l-0.46094 0.30859v0.61719c0 5.0781-2.7695 9.8477-6.4609 13.078-3.3828 2.9219-7.5391 4.7695-10.77 4.7695-7.6914 0-17.078-7.8477-17.23-17.539zm-4.6172 17.383c2-2.3086 6.3086-2.3086 8.3086-2.1523 0 2.4609 0.15234 8.1523 3.6914 12.152 1.0781 1.3828 2.4609 2.3086 4.1523 3.0781-1.3828 0.92188-2.4609 2.3086-3.0781 3.8477-10.152-2.3086-13.539-9.3828-13.539-9.5391-1.0742-3.3867-0.91797-5.8477 0.46484-7.3867zm13.848 26.309c1.0781 0 2 0.92188 2 1.8477 0 1.0781-0.92188 1.8477-2 1.8477s-2-0.92188-2-1.8477c0.15234-1.0781 0.92188-1.8477 2-1.8477zm-32.77 8.4609v-2.6172c0-10.461 6.7695-19.691 16.617-23.078 1.2305 2.1523 5.3828 8.1523 14.922 10.309v4.7695c-1.8477 0.46094-3.0781 2.1523-3.0781 4 0 2.3086 1.8477 4.1523 4.3086 4.1523 2.4609 0 4.3086-1.8477 4.3086-4.1523 0-2-1.2305-3.5391-3.0781-4v-5.0781c0-2.6172 2-4.6172 4.6172-4.6172h1.5391 0.46094 0.15234 0.46094 2.9219c2.6172 0 4.6172 2 4.6172 4.6172v2.3125c-1.8477 0.46094-3.0781 2.1523-3.0781 4 0 2.3086 1.8477 4.1523 4.1523 4.1523 2.3086 0 4.1523-1.8477 4.1523-4.1523 0-2-1.2305-3.5391-3.0781-4v-2.3086c8.7695-2.3086 12.617-8 13.691-10.152 3.2305 0.92188 6.1523 2.6172 8.6172 4.7695-6.9219 2.6172-12 9.3828-12 17.23 0 1.2305 0.15234 2.6172 0.46094 3.6914h-61.688zm79.848 12.309c-8.9219 0-16.152-7.2305-16.152-16.152s7.2305-16.152 16.152-16.152 16.152 7.2305 16.152 16.152-7.2305 16.152-16.152 16.152z" />
 </g>
</svg>
