<svg width="210" height="149" viewBox="0 0 210 149" fill="none" xmlns="http://www.w3.org/2000/svg">
<g filter="url(#filter0_d_208_35)">
<path d="M53.125 22.9375V34.0625L37.75 41.0625L53.125 48.875V60L23.75 42.75V39.5625L53.125 22.9375ZM159.625 15.9375L143 72.5H135L151.438 15.9375H159.625ZM165.875 22.9375L195.25 39.5625V42.75L165.875 60V48.875L181.25 41.0625L165.875 34.0625V22.9375Z" fill="white"/>
</g>
<g filter="url(#filter1_d_208_35)">
<path d="M125.166 25.4065C124.819 23.5191 123.893 21.7867 122.515 20.4511C121.138 19.1152 119.377 18.2423 117.48 17.9543C116.625 16.5888 115.341 15.5461 113.829 14.9903C112.316 14.4347 110.662 14.3976 109.126 14.8849C107.838 13.0265 105.848 11.7728 103.615 11.4127C101.81 11.2346 99.9988 11.6889 98.4914 12.6979C97.186 11.5825 95.52 10.9793 93.8033 11.0005C92.0863 11.022 90.4359 11.6661 89.1587 12.8134C87.5411 12.4611 85.8556 12.593 84.3126 13.193C82.7697 13.7932 81.4379 14.8345 80.4836 16.1871C78.0912 16.2214 75.8111 17.2074 74.1472 18.9269C72.8522 20.43 72.0983 22.3235 72.0052 24.3053C69.9045 24.906 68.1866 26.4214 67.3292 28.4309C66.7169 30.5031 66.9655 32.7348 68.0188 34.6216C67.0946 37.0416 67.081 39.7149 67.9802 42.1444C68.9511 44.2183 70.7137 45.8156 72.8727 46.5783C72.9602 47.984 73.2183 49.3737 73.6416 50.7166C75.3916 56.3758 80.9907 57.8087 84.6709 57.8087H84.7673L84.1247 62.7931H84.125C84.0884 63.0749 84.1656 63.3596 84.3389 63.5845C84.5125 63.8096 84.7685 63.9565 85.0503 63.9926H85.1895C85.4517 63.9948 85.7054 63.9007 85.9028 63.7282C86.1 63.5555 86.2275 63.3168 86.2605 63.0566L87.0595 56.7933C87.1001 56.4669 86.9887 56.14 86.7574 55.9064C86.528 55.6688 86.2004 55.553 85.8727 55.5938C85.5364 55.6302 77.6622 56.4506 75.6899 50.0782C73.837 44.0806 75.7349 39.1859 80.7622 36.9822V36.982C81.0311 36.8742 81.245 36.6623 81.3548 36.3941C81.4648 36.1259 81.4612 35.8249 81.3454 35.5591C81.2294 35.2936 81.0107 35.0866 80.7395 34.9848C80.4681 34.8833 80.1671 34.896 79.9054 35.02C78.024 35.8012 76.386 37.0717 75.1615 38.6996C73.9369 40.3275 73.1706 42.2536 72.9416 44.2778C71.631 43.6671 70.577 42.6146 69.9642 41.3046C69.2621 39.2391 69.3384 36.9882 70.1784 34.9751C70.3203 34.6478 70.2931 34.2718 70.1057 33.9683C69.2179 32.5337 68.9423 30.8031 69.3408 29.1638C70.1349 27.5635 71.6352 26.4298 73.3914 26.1029C73.6228 26.0324 73.8234 25.8856 73.9608 25.6864C74.0981 25.4873 74.1639 25.2475 74.1476 25.0063C74.0994 23.3107 74.6679 21.6554 75.7477 20.3475C77.1725 18.952 79.1097 18.2057 81.1027 18.2847C81.4606 18.2737 81.7893 18.085 81.9787 17.7813C82.7027 16.605 83.7887 15.6951 85.0734 15.1879C86.3584 14.681 87.7731 14.604 89.1053 14.9688C93.4108 16.3504 92.5196 21.2321 92.479 21.44C92.4221 21.7184 92.4783 22.0083 92.6352 22.2455C92.792 22.4829 93.0368 22.648 93.3152 22.7047C93.5939 22.7616 93.8838 22.7053 94.1209 22.5485C94.3581 22.3916 94.5234 22.1469 94.5801 21.8684C94.9199 20.356 94.8059 18.7772 94.2528 17.3293C93.6997 15.8815 92.7315 14.6291 91.4699 13.7288C92.4841 13.2165 93.6363 13.0451 94.7557 13.2403C95.8749 13.4358 96.9011 13.9871 97.6818 14.8125C97.8739 15.0028 98.1307 15.1132 98.4009 15.1219C98.6709 15.1306 98.9344 15.0369 99.1383 14.8595C100.331 13.8927 101.848 13.4184 103.38 13.5337C105.262 13.9231 106.887 15.1005 107.843 16.7682C107.982 16.9685 108.185 17.1153 108.419 17.1847C108.653 17.2541 108.903 17.2416 109.129 17.1495C110.342 16.6372 111.702 16.5903 112.948 17.0174C114.194 17.4447 115.238 18.316 115.882 19.4649C116.053 19.7806 116.371 19.9897 116.728 20.0218C118.34 20.1684 119.853 20.8581 121.021 21.978C122.188 23.0976 122.941 24.5809 123.154 26.1846C123.608 27.9654 123.14 29.8548 121.908 31.2183C120.577 32.1226 118.895 32.3384 117.38 31.7986C117.124 30.8209 116.42 30.0219 115.483 29.6443C114.545 29.2668 113.484 29.3554 112.622 29.8831C111.76 30.4108 111.199 31.3153 111.109 32.3221C111.019 33.3288 111.41 34.3186 112.165 34.9911C112.919 35.6636 113.948 35.9394 114.937 35.7344C115.927 35.5296 116.761 34.8682 117.187 33.9514C117.854 34.1125 118.537 34.2002 119.224 34.2126C120.792 34.3008 122.329 33.7472 123.481 32.6789C124.633 31.6108 125.301 30.1198 125.331 28.5492C126.767 30.8782 127.277 33.6615 126.76 36.3484C126.433 38.7013 125.184 40.8277 123.287 42.2581C122.474 42.8344 121.452 43.0305 120.483 42.7958C118.245 42.3502 115.925 42.56 113.803 43.3998C113.749 41.5717 113.159 39.7997 112.105 38.3047C111.052 36.8098 109.581 35.6578 107.878 34.9925C107.517 34.8731 107.12 34.9536 106.834 35.2044C106.549 35.4552 106.418 35.8386 106.49 36.2116C106.561 36.5847 106.825 36.8919 107.184 37.0187C108.849 37.6655 110.212 38.9106 111.007 40.5102C111.802 42.1098 111.971 43.9485 111.481 45.6662C110.624 50.008 107.361 50.4815 102.471 50.7129L102.471 50.7126C100.843 50.7146 99.222 50.9152 97.643 51.3104C92.4658 52.9127 90.0603 60.2851 90.1694 63.9591C90.1772 64.2378 90.2934 64.5026 90.4933 64.697C90.6935 64.8913 90.9615 65.0002 91.2404 65H91.2725C91.5565 64.9917 91.8256 64.8706 92.0204 64.6637C92.2154 64.4569 92.3201 64.1809 92.3114 63.8969C92.2235 60.973 94.2522 54.6028 98.2747 53.3559V53.3561C99.6826 53.0225 101.125 52.8536 102.572 52.8527C106.926 52.6385 112.346 52.3922 113.582 46.0777C113.601 45.9748 113.605 45.8807 113.622 45.78V45.7798C115.59 44.8268 117.805 44.51 119.96 44.874C121.507 45.2548 123.143 44.9596 124.459 44.062C125.642 43.1918 126.641 42.0956 127.398 40.8367C128.155 39.5778 128.655 38.1813 128.869 36.7278C129.687 32.1075 128.066 27.303 125.165 25.4071L125.166 25.4065ZM114.304 33.6489C114.024 33.6494 113.755 33.5387 113.556 33.3408C113.358 33.1431 113.246 32.8745 113.246 32.5942C113.245 32.314 113.356 32.0451 113.554 31.847C113.752 31.6486 114.021 31.5371 114.301 31.5369C114.581 31.5366 114.85 31.6477 115.048 31.8459C115.246 32.044 115.358 32.3127 115.358 32.5929C115.358 32.8725 115.247 33.1409 115.049 33.3388C114.852 33.5367 114.584 33.6483 114.304 33.6489Z" fill="white"/>
<path d="M79.9072 45.4254C79.7492 45.0769 79.4172 44.839 79.0363 44.8018C78.6554 44.7643 78.2835 44.933 78.0606 45.244C77.8377 45.5553 77.7977 45.9616 77.9557 46.3101C78.697 47.7037 79.8101 48.8647 81.1714 49.6637C82.5327 50.4627 84.0888 50.8686 85.6669 50.8362C87.5039 50.7885 89.3148 50.3906 91.0028 49.6646C91.6829 50.3928 92.6649 50.7606 93.656 50.6582C94.6473 50.5558 95.5333 49.9951 96.0501 49.1432C96.5671 48.2913 96.6552 47.2464 96.2884 46.3199C95.9214 45.3933 95.1418 44.6922 94.1816 44.4252C93.2217 44.1583 92.192 44.3562 91.3995 44.9602C90.6069 45.5644 90.1431 46.5047 90.146 47.5011C90.146 47.5676 90.1609 47.6297 90.1652 47.6939C82.5202 50.7376 80.0143 45.6568 79.9069 45.4254L79.9072 45.4254ZM93.3502 46.4474C93.6304 46.4474 93.8991 46.5587 94.0972 46.7568C94.2953 46.955 94.4065 47.2238 94.4062 47.5041C94.406 47.7841 94.2945 48.0528 94.0963 48.2507C93.898 48.4486 93.6291 48.5597 93.3488 48.5592C93.0686 48.5588 92.8002 48.4472 92.6023 48.2486C92.4046 48.0503 92.2937 47.7814 92.2944 47.5012C92.2948 47.2214 92.4064 46.9534 92.6043 46.7557C92.8022 46.5582 93.0706 46.4474 93.3502 46.4474Z" fill="white"/>
<path d="M82.8974 29.6328C82.8624 29.2502 82.6256 28.9153 82.2767 28.7544C81.9277 28.5937 81.5194 28.6312 81.2057 28.853C80.892 29.0748 80.7204 29.4472 80.7554 29.8299C81.0513 31.9337 82.1393 33.8455 83.7971 35.1741C85.7744 36.6365 88.1946 37.374 90.6515 37.2626C91.5596 37.2592 92.4664 37.1943 93.3656 37.0676C95.3142 36.9591 97.1987 36.3339 98.8257 35.256C100.453 34.1781 101.763 32.6865 102.623 30.9345C103.483 29.1823 103.861 27.2331 103.718 25.2865C104.647 24.8664 105.321 24.0306 105.535 23.0338C105.749 22.0371 105.478 20.998 104.803 20.2336C104.129 19.4692 103.132 19.07 102.116 19.1581C101.101 19.246 100.187 19.811 99.6542 20.6801C99.1216 21.5492 99.0328 22.6195 99.4152 23.5644C99.7976 24.5094 100.606 25.2167 101.593 25.4708C101.661 27.4499 101.242 33.8247 93.0717 34.9517V34.9514C91.726 35.2547 90.3331 35.2843 88.9756 35.0384C87.618 34.7928 86.3239 34.2765 85.1699 33.5208C83.9563 32.5515 83.1464 31.1659 82.8972 29.633L82.8974 29.6328ZM102.39 21.3258C102.67 21.3258 102.939 21.4372 103.137 21.6353C103.335 21.8334 103.446 22.1023 103.446 22.3825C103.446 22.6628 103.334 22.9314 103.136 23.1293C102.937 23.3272 102.669 23.4381 102.388 23.4377C102.108 23.4375 101.84 23.3257 101.642 23.1273C101.444 22.9287 101.333 22.6599 101.334 22.3796C101.334 22.0987 101.447 21.8298 101.646 21.6319C101.845 21.4342 102.115 21.324 102.396 21.3258L102.39 21.3258Z" fill="white"/>
<path d="M116.163 28.1802C117.012 28.1749 117.854 28.0301 118.656 27.7518C118.936 27.6693 119.169 27.477 119.304 27.2186C119.438 26.9604 119.461 26.6585 119.368 26.3827C119.275 26.1069 119.074 25.8807 118.811 25.7564C118.548 25.6319 118.245 25.6201 117.973 25.7234C113.218 27.3257 110.275 22.2576 110.15 22.0391C109.96 21.7091 109.609 21.505 109.228 21.5027C108.848 21.5005 108.494 21.7009 108.3 22.0286C108.107 22.3564 108.101 22.7625 108.287 23.095C109.068 24.5352 110.199 25.7557 111.575 26.6442C112.951 27.533 114.529 28.0611 116.163 28.1803L116.163 28.1802Z" fill="white"/>
<path d="M86.1361 19.8841C85.8545 19.8471 85.5698 19.9232 85.3445 20.0959C85.1191 20.2686 84.9716 20.5238 84.9344 20.8052C84.726 22.3068 85.0457 23.8343 85.8394 25.1262C86.6331 26.4181 87.8511 27.3938 89.2849 27.8867C89.3804 28.8875 89.944 29.784 90.8046 30.3036C91.6649 30.8235 92.7208 30.9053 93.6512 30.5243C94.5814 30.1432 95.2765 29.3442 95.525 28.37C95.7736 27.3958 95.5462 26.3616 94.9123 25.5814C94.2782 24.8011 93.3123 24.3671 92.308 24.4111C91.3037 24.455 90.3793 24.972 89.8159 25.8045C88.8993 25.4355 88.1313 24.7726 87.6322 23.9196C87.1333 23.0665 86.9318 22.0721 87.0592 21.0921C87.0982 20.8094 87.0226 20.5227 86.8492 20.296C86.6759 20.069 86.419 19.9209 86.1361 19.8841ZM92.453 26.55C92.7333 26.5496 93.0022 26.6603 93.2008 26.8582C93.3991 27.0559 93.5109 27.3245 93.5111 27.6047C93.5116 27.8848 93.4007 28.1536 93.2028 28.352C93.0048 28.5503 92.7362 28.6619 92.456 28.6621C92.1757 28.6624 91.9069 28.551 91.7087 28.3531C91.5106 28.155 91.3992 27.8863 91.3992 27.6061C91.4004 27.3267 91.5117 27.0592 91.7089 26.8613C91.9064 26.6636 92.1737 26.5518 92.453 26.55Z" fill="white"/>
<path d="M105.112 44.303C106.255 44.303 107.31 43.6934 107.882 42.7041C108.453 41.7146 108.453 40.4954 107.882 39.5061C107.31 38.5165 106.255 37.9069 105.112 37.9069C104.194 37.9087 103.322 38.3079 102.721 39.0016C101.415 38.3806 99.9312 38.238 98.5298 38.5984C97.1286 38.959 95.8982 39.7997 95.053 40.9745C94.8304 41.286 94.7909 41.6925 94.9493 42.041C95.1077 42.3895 95.4399 42.6272 95.8211 42.6644C96.2022 42.7015 96.5741 42.5326 96.7968 42.2211C97.3666 41.4404 98.1955 40.8879 99.1356 40.6626C100.076 40.4372 101.065 40.5539 101.927 40.9914C101.927 41.03 101.914 41.0642 101.914 41.1028V41.103C101.917 41.9502 102.255 42.762 102.854 43.3613C103.453 43.9606 104.265 44.2991 105.112 44.3031L105.112 44.303ZM105.112 40.0489C105.392 40.0489 105.661 40.1602 105.859 40.3586C106.057 40.5567 106.168 40.8256 106.168 41.1056C106.168 41.3858 106.056 41.6545 105.858 41.8524C105.66 42.0503 105.391 42.1614 105.111 42.161C104.83 42.1605 104.562 42.049 104.364 41.8504C104.166 41.652 104.056 41.3829 104.056 41.1029C104.057 40.8233 104.169 40.5556 104.367 40.3581C104.564 40.1606 104.832 40.0495 105.112 40.0489Z" fill="white"/>
</g>
<g filter="url(#filter2_d_208_35)">
<path d="M29.875 82.5L49.25 125H35.625L33.5625 119.375H20.3125L18.25 125H4.625L24 82.5H29.875ZM26.9375 101.375L23.75 110H30.125L26.9375 101.375ZM80.6875 114.688V125H54.875V114.688H61.9375V93.4375H54.875V83.125H80.6875V93.4375H73.625V114.688H80.6875ZM93.5625 114.938C95.1042 114.938 96.4167 115.479 97.5 116.562C98.625 117.646 99.1875 118.979 99.1875 120.562C99.1875 122.104 98.625 123.438 97.5 124.562C96.4167 125.646 95.1042 126.188 93.5625 126.188C92.0208 126.188 90.6875 125.646 89.5625 124.562C88.4792 123.438 87.9375 122.104 87.9375 120.562C87.9375 118.979 88.4792 117.646 89.5625 116.562C90.6875 115.479 92.0208 114.938 93.5625 114.938ZM120.438 83V122.062C120.438 125.521 119.708 128.542 118.25 131.125C116.833 133.708 114.854 135.812 112.312 137.438C109.771 139.062 106.812 140.229 103.438 140.938L99.5625 130.812C105.688 129.479 108.75 126.417 108.75 121.625V83H120.438ZM143.75 82.1875C146.208 82.1875 148.625 82.5 151 83.125C153.417 83.7083 155.354 84.5 156.812 85.5V96.8125C155.021 95.7708 153.25 94.875 151.5 94.125C149.75 93.3333 147.688 92.9375 145.312 92.9375C143.938 92.9375 142.75 93.1458 141.75 93.5625C140.75 93.9792 140.25 94.6667 140.25 95.625C140.25 96.6667 140.854 97.4583 142.062 98C143.271 98.5 144.75 99.0833 146.5 99.75L151 101.438C154.042 102.604 156.188 104.188 157.438 106.188C158.729 108.188 159.375 110.188 159.375 112.188C159.375 114.854 158.604 117.229 157.062 119.312C155.521 121.354 153.438 122.979 150.812 124.188C148.188 125.354 145.25 125.938 142 125.938C139.5 125.938 137.021 125.5 134.562 124.625C132.104 123.75 129.958 122.667 128.125 121.375V110.062C130.125 111.562 132.271 112.792 134.562 113.75C136.896 114.708 139.229 115.188 141.562 115.188C143.021 115.188 144.188 115.021 145.062 114.688C145.979 114.312 146.438 113.688 146.438 112.812C146.438 112.188 146.104 111.646 145.438 111.188C144.771 110.729 143.875 110.333 142.75 110L136.812 108.125C134.479 107.375 132.667 106.354 131.375 105.062C130.083 103.771 129.188 102.333 128.688 100.75C128.188 99.125 127.938 97.4792 127.938 95.8125C127.938 92.8542 128.688 90.375 130.188 88.375C131.688 86.3333 133.646 84.7917 136.062 83.75C138.479 82.7083 141.042 82.1875 143.75 82.1875ZM206 83.125L191.938 103.375L206 125H191.625L183.938 112.5L176.25 125H161.875L176.562 104.312L161.875 83.125H176.25L184.562 95.8125L191.625 83.125H206Z" fill="url(#paint0_linear_208_35)"/>
<path d="M29.875 82.5L30.7849 82.0852L30.5181 81.5H29.875V82.5ZM49.25 125V126H50.8049L50.1599 124.585L49.25 125ZM35.625 125L34.6861 125.344L34.9266 126H35.625V125ZM33.5625 119.375L34.5014 119.031L34.2609 118.375H33.5625V119.375ZM20.3125 119.375V118.375H19.6141L19.3736 119.031L20.3125 119.375ZM18.25 125V126H18.9484L19.1889 125.344L18.25 125ZM4.625 125L3.71509 124.585L3.07011 126H4.625V125ZM24 82.5V81.5H23.3569L23.0901 82.0852L24 82.5ZM26.9375 101.375L27.8755 101.028L26.9375 98.4902L25.9995 101.028L26.9375 101.375ZM23.75 110L22.812 109.653L22.3143 111H23.75V110ZM30.125 110V111H31.5607L31.063 109.653L30.125 110ZM28.9651 82.9148L48.3401 125.415L50.1599 124.585L30.7849 82.0852L28.9651 82.9148ZM49.25 124H35.625V126H49.25V124ZM36.5639 124.656L34.5014 119.031L32.6236 119.719L34.6861 125.344L36.5639 124.656ZM33.5625 118.375H20.3125V120.375H33.5625V118.375ZM19.3736 119.031L17.3111 124.656L19.1889 125.344L21.2514 119.719L19.3736 119.031ZM18.25 124H4.625V126H18.25V124ZM5.53491 125.415L24.9099 82.9148L23.0901 82.0852L3.71509 124.585L5.53491 125.415ZM24 83.5H29.875V81.5H24V83.5ZM25.9995 101.028L22.812 109.653L24.688 110.347L27.8755 101.722L25.9995 101.028ZM23.75 111H30.125V109H23.75V111ZM31.063 109.653L27.8755 101.028L25.9995 101.722L29.187 110.347L31.063 109.653ZM80.6875 114.688H81.6875V113.688H80.6875V114.688ZM80.6875 125V126H81.6875V125H80.6875ZM54.875 125H53.875V126H54.875V125ZM54.875 114.688V113.688H53.875V114.688H54.875ZM61.9375 114.688V115.688H62.9375V114.688H61.9375ZM61.9375 93.4375H62.9375V92.4375H61.9375V93.4375ZM54.875 93.4375H53.875V94.4375H54.875V93.4375ZM54.875 83.125V82.125H53.875V83.125H54.875ZM80.6875 83.125H81.6875V82.125H80.6875V83.125ZM80.6875 93.4375V94.4375H81.6875V93.4375H80.6875ZM73.625 93.4375V92.4375H72.625V93.4375H73.625ZM73.625 114.688H72.625V115.688H73.625V114.688ZM79.6875 114.688V125H81.6875V114.688H79.6875ZM80.6875 124H54.875V126H80.6875V124ZM55.875 125V114.688H53.875V125H55.875ZM54.875 115.688H61.9375V113.688H54.875V115.688ZM62.9375 114.688V93.4375H60.9375V114.688H62.9375ZM61.9375 92.4375H54.875V94.4375H61.9375V92.4375ZM55.875 93.4375V83.125H53.875V93.4375H55.875ZM54.875 84.125H80.6875V82.125H54.875V84.125ZM79.6875 83.125V93.4375H81.6875V83.125H79.6875ZM80.6875 92.4375H73.625V94.4375H80.6875V92.4375ZM72.625 93.4375V114.688H74.625V93.4375H72.625ZM73.625 115.688H80.6875V113.688H73.625V115.688ZM97.5 116.562L96.7929 117.27L96.7996 117.276L96.8064 117.283L97.5 116.562ZM89.5625 124.562L88.8422 125.256L88.8553 125.27L88.8689 125.283L89.5625 124.562ZM89.5625 116.562L88.8689 115.842L88.8621 115.849L88.8554 115.855L89.5625 116.562ZM93.5625 115.938C94.8408 115.938 95.8984 116.375 96.7929 117.27L98.2071 115.855C96.9349 114.583 95.3675 113.938 93.5625 113.938V115.938ZM96.8064 117.283C97.7326 118.175 98.1875 119.247 98.1875 120.562H100.188C100.188 118.712 99.5174 117.117 98.1936 115.842L96.8064 117.283ZM98.1875 120.562C98.1875 121.83 97.7371 122.911 96.7929 123.855L98.2071 125.27C99.5129 123.964 100.188 122.379 100.188 120.562H98.1875ZM96.7929 123.855C95.8984 124.75 94.8408 125.188 93.5625 125.188V127.188C95.3675 127.188 96.9349 126.542 98.2071 125.27L96.7929 123.855ZM93.5625 125.188C92.2833 125.188 91.1975 124.749 90.2561 123.842L88.8689 125.283C90.1775 126.543 91.7584 127.188 93.5625 127.188V125.188ZM90.2828 123.869C89.3763 122.927 88.9375 121.842 88.9375 120.562H86.9375C86.9375 122.367 87.582 123.948 88.8422 125.256L90.2828 123.869ZM88.9375 120.562C88.9375 119.234 89.3807 118.159 90.2696 117.27L88.8554 115.855C87.5776 117.133 86.9375 118.724 86.9375 120.562H88.9375ZM90.2561 117.283C91.1975 116.376 92.2833 115.938 93.5625 115.938V113.938C91.7584 113.938 90.1775 114.582 88.8689 115.842L90.2561 117.283ZM120.438 83H121.438V82H120.438V83ZM118.25 131.125L117.379 130.633L117.373 130.644L118.25 131.125ZM103.438 140.938L102.504 141.295L102.808 142.091L103.643 141.916L103.438 140.938ZM99.5625 130.812L99.3498 129.835L98.2126 130.083L98.6286 131.17L99.5625 130.812ZM108.75 83V82H107.75V83H108.75ZM119.438 83V122.062H121.438V83H119.438ZM119.438 122.062C119.438 125.377 118.74 128.223 117.379 130.633L119.121 131.617C120.677 128.86 121.438 125.664 121.438 122.062H119.438ZM117.373 130.644C116.039 133.077 114.178 135.058 111.774 136.595L112.851 138.28C115.531 136.567 117.628 134.34 119.127 131.606L117.373 130.644ZM111.774 136.595C109.348 138.146 106.505 139.272 103.232 139.959L103.643 141.916C107.12 141.187 110.194 139.979 112.851 138.28L111.774 136.595ZM104.371 140.58L100.496 130.455L98.6286 131.17L102.504 141.295L104.371 140.58ZM99.7752 131.79C102.946 131.099 105.446 129.937 107.16 128.223C108.9 126.483 109.75 124.255 109.75 121.625H107.75C107.75 123.787 107.069 125.486 105.746 126.809C104.398 128.156 102.304 129.192 99.3498 129.835L99.7752 131.79ZM109.75 121.625V83H107.75V121.625H109.75ZM108.75 84H120.438V82H108.75V84ZM151 83.125L150.746 84.0921L150.755 84.0947L150.765 84.0971L151 83.125ZM156.812 85.5H157.812V84.9732L157.378 84.6753L156.812 85.5ZM156.812 96.8125L156.31 97.677L157.812 98.5506V96.8125H156.812ZM151.5 94.125L151.088 95.0361L151.097 95.0402L151.106 95.0441L151.5 94.125ZM142.062 98L141.653 98.9125L141.667 98.9185L141.68 98.924L142.062 98ZM146.5 99.75L146.144 100.685L146.149 100.686L146.5 99.75ZM151 101.438L151.358 100.504L151.351 100.501L151 101.438ZM157.438 106.188L156.59 106.717L156.593 106.724L156.597 106.73L157.438 106.188ZM157.062 119.312L157.861 119.915L157.866 119.907L157.062 119.312ZM150.812 124.188L151.219 125.101L151.231 125.096L150.812 124.188ZM128.125 121.375H127.125V121.894L127.549 122.192L128.125 121.375ZM128.125 110.062L128.725 109.263L127.125 108.062V110.062H128.125ZM134.562 113.75L134.177 114.673L134.183 114.675L134.562 113.75ZM145.062 114.688L145.418 115.622L145.43 115.618L145.441 115.613L145.062 114.688ZM142.75 110L142.449 110.954L142.457 110.956L142.466 110.959L142.75 110ZM136.812 108.125L136.506 109.077L136.511 109.079L136.812 108.125ZM128.688 100.75L127.732 101.044L127.734 101.051L128.688 100.75ZM130.188 88.375L130.988 88.975L130.993 88.9671L130.188 88.375ZM143.75 83.1875C146.123 83.1875 148.454 83.489 150.746 84.0921L151.254 82.1579C148.796 81.511 146.294 81.1875 143.75 81.1875V83.1875ZM150.765 84.0971C153.108 84.6626 154.921 85.4154 156.247 86.3247L157.378 84.6753C155.787 83.5846 153.725 82.7541 151.235 82.1529L150.765 84.0971ZM155.812 85.5V96.8125H157.812V85.5H155.812ZM157.315 95.948C155.491 94.8877 153.684 93.9732 151.894 93.2059L151.106 95.0441C152.816 95.7768 154.55 96.654 156.31 97.677L157.315 95.948ZM151.912 93.2139C150.006 92.3515 147.797 91.9375 145.312 91.9375V93.9375C147.578 93.9375 149.494 94.3152 151.088 95.0361L151.912 93.2139ZM145.312 91.9375C143.84 91.9375 142.515 92.1603 141.365 92.6394L142.135 94.4856C142.985 94.1314 144.035 93.9375 145.312 93.9375V91.9375ZM141.365 92.6394C140.742 92.8992 140.2 93.2746 139.816 93.8025C139.426 94.3385 139.25 94.9626 139.25 95.625H141.25C141.25 95.3291 141.324 95.1302 141.434 94.9788C141.55 94.8191 141.758 94.6424 142.135 94.4856L141.365 92.6394ZM139.25 95.625C139.25 96.3543 139.467 97.0282 139.908 97.6067C140.339 98.1715 140.945 98.5951 141.653 98.9125L142.472 97.0875C141.971 96.8632 141.671 96.6201 141.498 96.3933C141.335 96.1802 141.25 95.9374 141.25 95.625H139.25ZM141.68 98.924C142.9 99.4288 144.389 100.016 146.144 100.684L146.856 98.8155C145.111 98.1509 143.642 97.5712 142.445 97.076L141.68 98.924ZM146.149 100.686L150.649 102.374L151.351 100.501L146.851 98.8137L146.149 100.686ZM150.642 102.371C153.557 103.489 155.491 104.96 156.59 106.717L158.285 105.658C156.884 103.415 154.527 101.719 151.358 100.504L150.642 102.371ZM156.597 106.73C157.805 108.6 158.375 110.414 158.375 112.188H160.375C160.375 109.961 159.653 107.775 158.278 105.645L156.597 106.73ZM158.375 112.188C158.375 114.647 157.669 116.812 156.259 118.718L157.866 119.907C159.539 117.647 160.375 115.062 160.375 112.188H158.375ZM156.264 118.71C154.835 120.604 152.889 122.131 150.394 123.279L151.231 125.096C153.986 123.828 156.207 122.105 157.861 119.915L156.264 118.71ZM150.406 123.274C147.925 124.377 145.128 124.938 142 124.938V126.938C145.372 126.938 148.45 126.332 151.219 125.101L150.406 123.274ZM142 124.938C139.619 124.938 137.253 124.521 134.898 123.683L134.227 125.567C136.788 126.479 139.381 126.938 142 126.938V124.938ZM134.898 123.683C132.511 122.833 130.449 121.789 128.701 120.558L127.549 122.192C129.468 123.544 131.697 124.667 134.227 125.567L134.898 123.683ZM129.125 121.375V110.062H127.125V121.375H129.125ZM127.525 110.862C129.591 112.412 131.808 113.682 134.177 114.673L134.948 112.827C132.733 111.901 130.659 110.713 128.725 109.263L127.525 110.862ZM134.183 114.675C136.627 115.679 139.089 116.188 141.562 116.188V114.188C139.37 114.188 137.165 113.738 134.942 112.825L134.183 114.675ZM141.562 116.188C143.082 116.188 144.385 116.016 145.418 115.622L144.707 113.753C143.99 114.026 142.959 114.188 141.562 114.188V116.188ZM145.441 115.613C146.023 115.375 146.535 115.026 146.9 114.529C147.271 114.023 147.438 113.434 147.438 112.812H145.438C145.438 113.066 145.375 113.227 145.287 113.346C145.194 113.474 145.018 113.625 144.684 113.762L145.441 115.613ZM147.438 112.812C147.438 111.763 146.853 110.947 146.004 110.363L144.871 112.012C145.355 112.344 145.438 112.612 145.438 112.812H147.438ZM146.004 110.363C145.221 109.825 144.219 109.392 143.034 109.041L142.466 110.959C143.531 111.275 144.32 111.633 144.871 112.012L146.004 110.363ZM143.051 109.046L137.114 107.171L136.511 109.079L142.449 110.954L143.051 109.046ZM137.119 107.173C134.887 106.456 133.23 105.503 132.082 104.355L130.668 105.77C132.104 107.205 134.071 108.294 136.506 109.077L137.119 107.173ZM132.082 104.355C130.892 103.166 130.088 101.864 129.641 100.449L127.734 101.051C128.287 102.803 129.274 104.376 130.668 105.77L132.082 104.355ZM129.643 100.456C129.172 98.9243 128.938 97.3775 128.938 95.8125H126.938C126.938 97.5809 127.203 99.3257 127.732 101.044L129.643 100.456ZM128.938 95.8125C128.938 93.0296 129.64 90.7718 130.988 88.975L129.387 87.775C127.735 89.9782 126.938 92.6788 126.938 95.8125H128.938ZM130.993 88.9671C132.384 87.0744 134.198 85.6425 136.458 84.6683L135.667 82.8317C133.093 83.9409 130.991 85.5923 129.382 87.7829L130.993 88.9671ZM136.458 84.6683C138.746 83.6821 141.174 83.1875 143.75 83.1875V81.1875C140.91 81.1875 138.212 81.7345 135.667 82.8317L136.458 84.6683ZM206 83.125L206.821 83.6954L207.912 82.125H206V83.125ZM191.938 103.375L191.116 102.805L190.733 103.357L191.099 103.92L191.938 103.375ZM206 125V126H207.843L206.838 124.455L206 125ZM191.625 125L190.773 125.524L191.066 126H191.625V125ZM183.938 112.5L184.789 111.976L183.938 110.591L183.086 111.976L183.938 112.5ZM176.25 125V126H176.809L177.102 125.524L176.25 125ZM161.875 125L161.06 124.421L159.939 126H161.875V125ZM176.562 104.312L177.378 104.891L177.784 104.319L177.384 103.743L176.562 104.312ZM161.875 83.125V82.125H159.965L161.053 83.6947L161.875 83.125ZM176.25 83.125L177.086 82.577L176.79 82.125H176.25V83.125ZM184.562 95.8125L183.726 96.3605L184.632 97.7435L185.436 96.2989L184.562 95.8125ZM191.625 83.125V82.125H191.037L190.751 82.6386L191.625 83.125ZM205.179 82.5546L191.116 102.805L192.759 103.945L206.821 83.6954L205.179 82.5546ZM191.099 103.92L205.162 125.545L206.838 124.455L192.776 102.83L191.099 103.92ZM206 124H191.625V126H206V124ZM192.477 124.476L184.789 111.976L183.086 113.024L190.773 125.524L192.477 124.476ZM183.086 111.976L175.398 124.476L177.102 125.524L184.789 113.024L183.086 111.976ZM176.25 124H161.875V126H176.25V124ZM162.69 125.579L177.378 104.891L175.747 103.734L161.06 124.421L162.69 125.579ZM177.384 103.743L162.697 82.5553L161.053 83.6947L175.741 104.882L177.384 103.743ZM161.875 84.125H176.25V82.125H161.875V84.125ZM175.414 83.673L183.726 96.3605L185.399 95.2645L177.086 82.577L175.414 83.673ZM185.436 96.2989L192.499 83.6114L190.751 82.6386L183.689 95.3261L185.436 96.2989ZM191.625 84.125H206V82.125H191.625V84.125Z" fill="black"/>
</g>
<defs>
<filter id="filter0_d_208_35" x="19.75" y="15.9375" width="179.5" height="64.5625" filterUnits="userSpaceOnUse" color-interpolation-filters="sRGB">
<feFlood flood-opacity="0" result="BackgroundImageFix"/>
<feColorMatrix in="SourceAlpha" type="matrix" values="0 0 0 0 0 0 0 0 0 0 0 0 0 0 0 0 0 0 127 0" result="hardAlpha"/>
<feOffset dy="4"/>
<feGaussianBlur stdDeviation="2"/>
<feComposite in2="hardAlpha" operator="out"/>
<feColorMatrix type="matrix" values="0 0 0 0 0 0 0 0 0 0 0 0 0 0 0 0 0 0 0.25 0"/>
<feBlend mode="normal" in2="BackgroundImageFix" result="effect1_dropShadow_208_35"/>
<feBlend mode="normal" in="SourceGraphic" in2="effect1_dropShadow_208_35" result="shape"/>
</filter>
<filter id="filter1_d_208_35" x="63" y="11" width="70.0805" height="62" filterUnits="userSpaceOnUse" color-interpolation-filters="sRGB">
<feFlood flood-opacity="0" result="BackgroundImageFix"/>
<feColorMatrix in="SourceAlpha" type="matrix" values="0 0 0 0 0 0 0 0 0 0 0 0 0 0 0 0 0 0 127 0" result="hardAlpha"/>
<feOffset dy="4"/>
<feGaussianBlur stdDeviation="2"/>
<feComposite in2="hardAlpha" operator="out"/>
<feColorMatrix type="matrix" values="0 0 0 0 0 0 0 0 0 0 0 0 0 0 0 0 0 0 0.25 0"/>
<feBlend mode="normal" in2="BackgroundImageFix" result="effect1_dropShadow_208_35"/>
<feBlend mode="normal" in="SourceGraphic" in2="effect1_dropShadow_208_35" result="shape"/>
</filter>
<filter id="filter2_d_208_35" x="0.625" y="82.1875" width="209.375" height="66.75" filterUnits="userSpaceOnUse" color-interpolation-filters="sRGB">
<feFlood flood-opacity="0" result="BackgroundImageFix"/>
<feColorMatrix in="SourceAlpha" type="matrix" values="0 0 0 0 0 0 0 0 0 0 0 0 0 0 0 0 0 0 127 0" result="hardAlpha"/>
<feOffset dy="4"/>
<feGaussianBlur stdDeviation="2"/>
<feComposite in2="hardAlpha" operator="out"/>
<feColorMatrix type="matrix" values="0 0 0 0 0 0 0 0 0 0 0 0 0 0 0 0 0 0 0.25 0"/>
<feBlend mode="normal" in2="BackgroundImageFix" result="effect1_dropShadow_208_35"/>
<feBlend mode="normal" in="SourceGraphic" in2="effect1_dropShadow_208_35" result="shape"/>
</filter>
<linearGradient id="paint0_linear_208_35" x1="181.5" y1="83" x2="182" y2="142" gradientUnits="userSpaceOnUse">
<stop stop-color="#FF4D00"/>
<stop offset="1" stop-color="#5A1C01"/>
</linearGradient>
</defs>
</svg>
