<svg width="181" height="81" viewBox="0 0 181 81" fill="none" xmlns="http://www.w3.org/2000/svg">
<g filter="url(#filter0_d_206_13)">
<path d="M34.125 22.9375V34.0625L18.75 41.0625L34.125 48.875V60L4.75 42.75V39.5625L34.125 22.9375ZM140.625 15.9375L124 72.5H116L132.438 15.9375H140.625ZM146.875 22.9375L176.25 39.5625V42.75L146.875 60V48.875L162.25 41.0625L146.875 34.0625V22.9375Z" fill="black"/>
</g>
<g filter="url(#filter1_d_206_13)">
<path d="M106.166 25.4065C105.819 23.5191 104.893 21.7867 103.515 20.4511C102.138 19.1152 100.377 18.2423 98.4802 17.9543C97.6254 16.5888 96.3407 15.5461 94.8285 14.9903C93.3162 14.4347 91.6619 14.3976 90.1264 14.8849C88.8377 13.0265 86.8476 11.7728 84.615 11.4127C82.8097 11.2346 80.9988 11.6889 79.4914 12.6979C78.186 11.5825 76.52 10.9793 74.8033 11.0005C73.0863 11.022 71.4359 11.6661 70.1587 12.8134C68.5411 12.4611 66.8556 12.593 65.3126 13.193C63.7697 13.7932 62.4379 14.8345 61.4836 16.1871C59.0912 16.2214 56.8111 17.2074 55.1472 18.9269C53.8522 20.43 53.0983 22.3235 53.0052 24.3053C50.9045 24.906 49.1866 26.4214 48.3292 28.4309C47.7169 30.5031 47.9655 32.7348 49.0188 34.6216C48.0946 37.0416 48.081 39.7149 48.9802 42.1444C49.9511 44.2183 51.7137 45.8156 53.8727 46.5783C53.9602 47.984 54.2183 49.3737 54.6416 50.7166C56.3916 56.3758 61.9907 57.8087 65.6709 57.8087H65.7673L65.1247 62.7931H65.125C65.0884 63.0749 65.1656 63.3596 65.3389 63.5845C65.5125 63.8096 65.7685 63.9565 66.0503 63.9926H66.1895C66.4517 63.9948 66.7054 63.9007 66.9028 63.7282C67.1 63.5555 67.2275 63.3168 67.2605 63.0566L68.0595 56.7933C68.1001 56.4669 67.9887 56.14 67.7574 55.9064C67.528 55.6688 67.2004 55.553 66.8727 55.5938C66.5364 55.6302 58.6622 56.4506 56.6899 50.0782C54.837 44.0806 56.7349 39.1859 61.7622 36.9822V36.982C62.0311 36.8742 62.245 36.6623 62.3548 36.3941C62.4648 36.1259 62.4612 35.8249 62.3454 35.5591C62.2294 35.2936 62.0107 35.0866 61.7395 34.9848C61.4681 34.8833 61.1671 34.896 60.9054 35.02C59.024 35.8012 57.386 37.0717 56.1615 38.6996C54.9369 40.3275 54.1706 42.2536 53.9416 44.2778C52.631 43.6671 51.577 42.6146 50.9642 41.3046C50.2621 39.2391 50.3384 36.9882 51.1784 34.9751C51.3203 34.6478 51.2931 34.2718 51.1057 33.9683C50.2179 32.5337 49.9423 30.8031 50.3408 29.1638C51.1349 27.5635 52.6352 26.4298 54.3914 26.1029C54.6228 26.0324 54.8234 25.8856 54.9608 25.6864C55.0981 25.4873 55.1639 25.2475 55.1476 25.0063C55.0994 23.3107 55.6679 21.6554 56.7477 20.3475C58.1725 18.952 60.1097 18.2057 62.1027 18.2847C62.4606 18.2737 62.7893 18.085 62.9787 17.7813C63.7027 16.605 64.7887 15.6951 66.0734 15.1879C67.3584 14.681 68.7731 14.604 70.1053 14.9688C74.4108 16.3504 73.5196 21.2321 73.479 21.44C73.4221 21.7184 73.4783 22.0083 73.6352 22.2455C73.792 22.4829 74.0368 22.648 74.3152 22.7047C74.5939 22.7616 74.8838 22.7053 75.1209 22.5485C75.3581 22.3916 75.5234 22.1469 75.5801 21.8684C75.9199 20.356 75.8059 18.7772 75.2528 17.3293C74.6997 15.8815 73.7315 14.6291 72.4699 13.7288C73.4841 13.2165 74.6363 13.0451 75.7557 13.2403C76.8749 13.4358 77.9011 13.9871 78.6818 14.8125C78.8739 15.0028 79.1307 15.1132 79.4009 15.1219C79.6709 15.1306 79.9344 15.0369 80.1383 14.8595C81.3312 13.8927 82.8484 13.4184 84.3795 13.5337C86.262 13.9231 87.8873 15.1005 88.8434 16.7682C88.9824 16.9685 89.1854 17.1153 89.419 17.1847C89.6526 17.2541 89.903 17.2416 90.1286 17.1495C91.3421 16.6372 92.7019 16.5903 93.9478 17.0174C95.1937 17.4447 96.2384 18.316 96.8823 19.4649C97.0533 19.7806 97.371 19.9897 97.7284 20.0218C99.3396 20.1684 100.853 20.8581 102.021 21.978C103.188 23.0976 103.941 24.5809 104.154 26.1846C104.608 27.9654 104.14 29.8548 102.908 31.2183C101.577 32.1226 99.8952 32.3384 98.3797 31.7986C98.1238 30.8209 97.4203 30.0219 96.4827 29.6443C95.5452 29.2668 94.4844 29.3554 93.6223 29.8831C92.7603 30.4108 92.1989 31.3153 92.1088 32.3221C92.0187 33.3288 92.4105 34.3186 93.1648 34.9911C93.9195 35.6636 94.9476 35.9394 95.9374 35.7344C96.9272 35.5296 97.7615 34.8682 98.187 33.9514C98.8544 34.1125 99.5373 34.2002 100.224 34.2126C101.792 34.3008 103.329 33.7472 104.481 32.6789C105.633 31.6108 106.301 30.1198 106.331 28.5492C107.767 30.8782 108.277 33.6615 107.76 36.3484C107.433 38.7013 106.184 40.8277 104.287 42.2581C103.474 42.8344 102.452 43.0305 101.483 42.7958C99.2448 42.3502 96.925 42.56 94.8027 43.3998C94.7489 41.5717 94.1585 39.7997 93.1049 38.3047C92.0515 36.8098 90.5813 35.6578 88.8777 34.9925C88.5169 34.8731 88.12 34.9536 87.8344 35.2044C87.549 35.4552 87.4178 35.8386 87.4896 36.2116C87.5613 36.5847 87.8255 36.8919 88.1838 37.0187C89.8485 37.6655 91.2121 38.9106 92.0068 40.5102C92.8018 42.1098 92.9707 43.9485 92.4805 45.6662C91.6237 50.008 88.3614 50.4815 83.471 50.7129L83.4712 50.7126C81.8435 50.7146 80.222 50.9152 78.643 51.3104C73.4658 52.9127 71.0603 60.2851 71.1694 63.9591C71.1772 64.2378 71.2934 64.5026 71.4933 64.697C71.6935 64.8913 71.9615 65.0002 72.2404 65H72.2725C72.5565 64.9917 72.8256 64.8706 73.0204 64.6637C73.2154 64.4569 73.3201 64.1809 73.3114 63.8969C73.2235 60.973 75.2522 54.6028 79.2747 53.3559V53.3561C80.6826 53.0225 82.1247 52.8536 83.5717 52.8527C87.9265 52.6385 93.3456 52.3922 94.5816 46.0777C94.6008 45.9748 94.6053 45.8807 94.6223 45.78V45.7798C96.5895 44.8268 98.805 44.51 100.96 44.874C102.507 45.2548 104.143 44.9596 105.459 44.062C106.642 43.1918 107.641 42.0956 108.398 40.8367C109.155 39.5778 109.655 38.1813 109.869 36.7278C110.687 32.1075 109.066 27.303 106.165 25.4071L106.166 25.4065ZM95.3038 33.6489C95.0236 33.6494 94.7547 33.5387 94.5561 33.3408C94.3578 33.1431 94.246 32.8745 94.2458 32.5942C94.2453 32.314 94.3562 32.0451 94.5541 31.847C94.752 31.6486 95.0207 31.5371 95.3009 31.5369C95.5811 31.5366 95.85 31.6477 96.0482 31.8459C96.2463 32.044 96.3576 32.3127 96.3576 32.5929C96.3576 32.8725 96.2467 33.1409 96.0491 33.3388C95.8516 33.5367 95.5837 33.6483 95.3038 33.6489Z" fill="black"/>
<path d="M60.9072 45.4254C60.7492 45.0769 60.4172 44.839 60.0363 44.8018C59.6554 44.7643 59.2835 44.933 59.0606 45.244C58.8377 45.5553 58.7977 45.9616 58.9557 46.3101C59.697 47.7037 60.8101 48.8647 62.1714 49.6637C63.5327 50.4627 65.0888 50.8686 66.6669 50.8362C68.5039 50.7885 70.3148 50.3906 72.0028 49.6646C72.6829 50.3928 73.6649 50.7606 74.656 50.6582C75.6473 50.5557 76.5333 49.9951 77.0501 49.1432C77.5671 48.2913 77.6552 47.2464 77.2884 46.3199C76.9214 45.3933 76.1418 44.6922 75.1816 44.4251C74.2217 44.1583 73.192 44.3562 72.3995 44.9602C71.6069 45.5644 71.1431 46.5047 71.146 47.5011C71.146 47.5676 71.1609 47.6297 71.1652 47.6939C63.5202 50.7376 61.0143 45.6568 60.9069 45.4254L60.9072 45.4254ZM74.3502 46.4474C74.6304 46.4474 74.8991 46.5587 75.0972 46.7568C75.2953 46.955 75.4065 47.2238 75.4062 47.5041C75.406 47.7841 75.2945 48.0527 75.0963 48.2506C74.898 48.4486 74.6291 48.5597 74.3488 48.5592C74.0686 48.5588 73.8002 48.4472 73.6023 48.2486C73.4046 48.0503 73.2937 47.7814 73.2944 47.5012C73.2948 47.2214 73.4064 46.9534 73.6043 46.7557C73.8022 46.5582 74.0706 46.4474 74.3502 46.4474Z" fill="black"/>
<path d="M63.8974 29.6328C63.8624 29.2502 63.6256 28.9153 63.2767 28.7544C62.9277 28.5937 62.5194 28.6312 62.2057 28.853C61.892 29.0748 61.7204 29.4472 61.7554 29.8299C62.0513 31.9337 63.1393 33.8455 64.7971 35.1741C66.7744 36.6365 69.1946 37.374 71.6515 37.2626C72.5596 37.2592 73.4664 37.1943 74.3656 37.0676C76.3142 36.9591 78.1987 36.3339 79.8257 35.256C81.4528 34.1781 82.7634 32.6865 83.6233 30.9345C84.483 29.1823 84.8608 27.2331 84.7178 25.2865C85.6466 24.8664 86.3209 24.0306 86.5349 23.0338C86.7491 22.0371 86.4775 20.998 85.803 20.2336C85.1287 19.4692 84.1316 19.07 83.1162 19.1581C82.1005 19.246 81.187 19.811 80.6542 20.6801C80.1216 21.5492 80.0328 22.6195 80.4152 23.5644C80.7976 24.5094 81.6058 25.2167 82.5929 25.4708C82.6614 27.4499 82.2417 33.8247 74.0717 34.9517V34.9514C72.726 35.2547 71.3331 35.2843 69.9756 35.0384C68.618 34.7928 67.3239 34.2765 66.1699 33.5208C64.9563 32.5515 64.1464 31.1659 63.8972 29.633L63.8974 29.6328ZM83.3897 21.3258C83.6699 21.3258 83.9386 21.4372 84.1367 21.6353C84.3348 21.8334 84.446 22.1023 84.4457 22.3825C84.4455 22.6628 84.334 22.9314 84.1358 23.1293C83.9375 23.3272 83.6686 23.4381 83.3883 23.4377C83.1081 23.4375 82.8397 23.3257 82.6418 23.1273C82.4441 22.9287 82.3332 22.6599 82.3339 22.3796C82.3343 22.0987 82.4468 21.8298 82.646 21.6319C82.8455 21.4342 83.1155 21.324 83.3962 21.3258L83.3897 21.3258Z" fill="black"/>
<path d="M97.1631 28.1802C98.0121 28.1749 98.8544 28.0301 99.6565 27.7518C99.9356 27.6693 100.169 27.4769 100.304 27.2186C100.438 26.9604 100.461 26.6585 100.368 26.3827C100.275 26.1069 100.074 25.8807 99.8109 25.7564C99.5478 25.6319 99.2453 25.6201 98.9731 25.7234C94.2178 27.3257 91.275 22.2575 91.1504 22.0391C90.9603 21.7091 90.6094 21.505 90.2285 21.5027C89.8478 21.5005 89.4943 21.7009 89.3005 22.0286C89.1068 22.3564 89.1015 22.7625 89.2869 23.095C90.068 24.5352 91.1986 25.7557 92.5751 26.6442C93.9513 27.533 95.529 28.0611 97.163 28.1803L97.1631 28.1802Z" fill="black"/>
<path d="M67.1361 19.8841C66.8545 19.8471 66.5698 19.9231 66.3445 20.0958C66.1191 20.2685 65.9716 20.5238 65.9344 20.8052C65.726 22.3068 66.0457 23.8343 66.8394 25.1262C67.6331 26.4181 68.8511 27.3938 70.2849 27.8867C70.3804 28.8875 70.944 29.784 71.8046 30.3036C72.6649 30.8235 73.7208 30.9053 74.6512 30.5243C75.5814 30.1432 76.2765 29.3441 76.525 28.37C76.7736 27.3958 76.5462 26.3616 75.9123 25.5813C75.2782 24.8011 74.3123 24.3671 73.308 24.4111C72.3037 24.455 71.3793 24.972 70.8159 25.8045C69.8993 25.4355 69.1313 24.7726 68.6322 23.9196C68.1333 23.0665 67.9318 22.0721 68.0592 21.0921C68.0982 20.8094 68.0226 20.5227 67.8492 20.296C67.6759 20.069 67.419 19.9209 67.1361 19.8841ZM73.453 26.55C73.7333 26.5496 74.0022 26.6603 74.2008 26.8582C74.3991 27.0559 74.5109 27.3245 74.5111 27.6047C74.5116 27.8848 74.4007 28.1536 74.2028 28.352C74.0048 28.5503 73.7362 28.6619 73.456 28.6621C73.1757 28.6623 72.9069 28.551 72.7087 28.3531C72.5106 28.155 72.3992 27.8863 72.3992 27.6061C72.4004 27.3267 72.5117 27.0592 72.7089 26.8613C72.9064 26.6636 73.1737 26.5518 73.453 26.55Z" fill="black"/>
<path d="M86.1121 44.303C87.2547 44.303 88.3103 43.6934 88.8817 42.7041C89.4529 41.7146 89.4529 40.4954 88.8817 39.5061C88.3103 38.5165 87.2547 37.9069 86.1121 37.9069C85.1944 37.9087 84.3224 38.3079 83.7215 39.0016C82.4146 38.3806 80.9312 38.238 79.5298 38.5984C78.1286 38.9589 76.8983 39.7997 76.0531 40.9745C75.8304 41.2859 75.7909 41.6925 75.9493 42.041C76.1077 42.3895 76.44 42.6272 76.8211 42.6644C77.2022 42.7015 77.5742 42.5326 77.7968 42.2211C78.3667 41.4404 79.1956 40.8879 80.1356 40.6626C81.0756 40.4372 82.0649 40.5539 82.9269 40.9914C82.9269 41.03 82.914 41.0642 82.914 41.1028V41.103C82.9173 41.9502 83.2553 42.7619 83.8542 43.3612C84.4533 43.9606 85.2646 44.299 86.112 44.303L86.1121 44.303ZM86.1121 40.0489C86.3923 40.0489 86.6609 40.1602 86.8591 40.3586C87.057 40.5567 87.1683 40.8256 87.1681 41.1056C87.1679 41.3858 87.0563 41.6545 86.858 41.8524C86.6596 42.0503 86.3907 42.1614 86.1107 42.161C85.8305 42.1605 85.5618 42.049 85.3642 41.8504C85.1662 41.652 85.0556 41.3829 85.056 41.1029C85.0571 40.8233 85.1689 40.5556 85.3668 40.3581C85.5645 40.1606 85.8325 40.0495 86.1121 40.0489Z" fill="black"/>
</g>
<defs>
<filter id="filter0_d_206_13" x="0.75" y="15.9375" width="179.5" height="64.5625" filterUnits="userSpaceOnUse" color-interpolation-filters="sRGB">
<feFlood flood-opacity="0" result="BackgroundImageFix"/>
<feColorMatrix in="SourceAlpha" type="matrix" values="0 0 0 0 0 0 0 0 0 0 0 0 0 0 0 0 0 0 127 0" result="hardAlpha"/>
<feOffset dy="4"/>
<feGaussianBlur stdDeviation="2"/>
<feComposite in2="hardAlpha" operator="out"/>
<feColorMatrix type="matrix" values="0 0 0 0 0 0 0 0 0 0 0 0 0 0 0 0 0 0 0.25 0"/>
<feBlend mode="normal" in2="BackgroundImageFix" result="effect1_dropShadow_206_13"/>
<feBlend mode="normal" in="SourceGraphic" in2="effect1_dropShadow_206_13" result="shape"/>
</filter>
<filter id="filter1_d_206_13" x="44" y="11" width="70.0805" height="62" filterUnits="userSpaceOnUse" color-interpolation-filters="sRGB">
<feFlood flood-opacity="0" result="BackgroundImageFix"/>
<feColorMatrix in="SourceAlpha" type="matrix" values="0 0 0 0 0 0 0 0 0 0 0 0 0 0 0 0 0 0 127 0" result="hardAlpha"/>
<feOffset dy="4"/>
<feGaussianBlur stdDeviation="2"/>
<feComposite in2="hardAlpha" operator="out"/>
<feColorMatrix type="matrix" values="0 0 0 0 0 0 0 0 0 0 0 0 0 0 0 0 0 0 0.25 0"/>
<feBlend mode="normal" in2="BackgroundImageFix" result="effect1_dropShadow_206_13"/>
<feBlend mode="normal" in="SourceGraphic" in2="effect1_dropShadow_206_13" result="shape"/>
</filter>
</defs>
</svg>
