<svg width="210" height="155" viewBox="0 0 210 155" fill="none" xmlns="http://www.w3.org/2000/svg">
<g filter="url(#filter0_d_213_13)">
<path d="M53.125 22.9375V34.0625L37.75 41.0625L53.125 48.875V60L23.75 42.75V39.5625L53.125 22.9375ZM159.625 15.9375L143 72.5H135L151.438 15.9375H159.625ZM165.875 22.9375L195.25 39.5625V42.75L165.875 60V48.875L181.25 41.0625L165.875 34.0625V22.9375Z" fill="black"/>
</g>
<g filter="url(#filter1_d_213_13)">
<path d="M125.166 25.4065C124.819 23.5191 123.893 21.7867 122.515 20.4511C121.138 19.1152 119.377 18.2423 117.48 17.9543C116.625 16.5888 115.341 15.5461 113.829 14.9903C112.316 14.4347 110.662 14.3976 109.126 14.8849C107.838 13.0265 105.848 11.7728 103.615 11.4127C101.81 11.2346 99.9988 11.6889 98.4914 12.6979C97.186 11.5825 95.52 10.9793 93.8033 11.0005C92.0863 11.022 90.4359 11.6661 89.1587 12.8134C87.5411 12.4611 85.8556 12.593 84.3126 13.193C82.7697 13.7932 81.4379 14.8345 80.4836 16.1871C78.0912 16.2214 75.8111 17.2074 74.1472 18.9269C72.8522 20.43 72.0983 22.3235 72.0052 24.3053C69.9045 24.906 68.1866 26.4214 67.3292 28.4309C66.7169 30.5031 66.9655 32.7348 68.0188 34.6216C67.0946 37.0416 67.081 39.7149 67.9802 42.1444C68.9511 44.2183 70.7137 45.8156 72.8727 46.5783C72.9602 47.984 73.2183 49.3737 73.6416 50.7166C75.3916 56.3758 80.9907 57.8087 84.6709 57.8087H84.7673L84.1247 62.7931H84.125C84.0884 63.0749 84.1656 63.3596 84.3389 63.5845C84.5125 63.8096 84.7685 63.9565 85.0503 63.9926H85.1895C85.4517 63.9948 85.7054 63.9007 85.9028 63.7282C86.1 63.5555 86.2275 63.3168 86.2605 63.0566L87.0595 56.7933C87.1001 56.4669 86.9887 56.14 86.7574 55.9064C86.528 55.6688 86.2004 55.553 85.8727 55.5938C85.5364 55.6302 77.6622 56.4506 75.6899 50.0782C73.837 44.0806 75.7349 39.1859 80.7622 36.9822V36.982C81.0311 36.8742 81.245 36.6623 81.3548 36.3941C81.4648 36.1259 81.4612 35.8249 81.3454 35.5591C81.2294 35.2936 81.0107 35.0866 80.7395 34.9848C80.4681 34.8833 80.1671 34.896 79.9054 35.02C78.024 35.8012 76.386 37.0717 75.1615 38.6996C73.9369 40.3275 73.1706 42.2536 72.9416 44.2778C71.631 43.6671 70.577 42.6146 69.9642 41.3046C69.2621 39.2391 69.3384 36.9882 70.1784 34.9751C70.3203 34.6478 70.2931 34.2718 70.1057 33.9683C69.2179 32.5337 68.9423 30.8031 69.3408 29.1638C70.1349 27.5635 71.6352 26.4298 73.3914 26.1029C73.6228 26.0324 73.8234 25.8856 73.9608 25.6864C74.0981 25.4873 74.1639 25.2475 74.1476 25.0063C74.0994 23.3107 74.6679 21.6554 75.7477 20.3475C77.1725 18.952 79.1097 18.2057 81.1027 18.2847C81.4606 18.2737 81.7893 18.085 81.9787 17.7813C82.7027 16.605 83.7887 15.6951 85.0734 15.1879C86.3584 14.681 87.7731 14.604 89.1053 14.9688C93.4108 16.3504 92.5196 21.2321 92.479 21.44C92.4221 21.7184 92.4783 22.0083 92.6352 22.2455C92.792 22.4829 93.0368 22.648 93.3152 22.7047C93.5939 22.7616 93.8838 22.7053 94.1209 22.5485C94.3581 22.3916 94.5234 22.1469 94.5801 21.8684C94.9199 20.356 94.8059 18.7772 94.2528 17.3293C93.6997 15.8815 92.7315 14.6291 91.4699 13.7288C92.4841 13.2165 93.6363 13.0451 94.7557 13.2403C95.8749 13.4358 96.9011 13.9871 97.6818 14.8125C97.8739 15.0028 98.1307 15.1132 98.4009 15.1219C98.6709 15.1306 98.9344 15.0369 99.1383 14.8595C100.331 13.8927 101.848 13.4184 103.38 13.5337C105.262 13.9231 106.887 15.1005 107.843 16.7682C107.982 16.9685 108.185 17.1153 108.419 17.1847C108.653 17.2541 108.903 17.2416 109.129 17.1495C110.342 16.6372 111.702 16.5903 112.948 17.0174C114.194 17.4447 115.238 18.316 115.882 19.4649C116.053 19.7806 116.371 19.9897 116.728 20.0218C118.34 20.1684 119.853 20.8581 121.021 21.978C122.188 23.0976 122.941 24.5809 123.154 26.1846C123.608 27.9654 123.14 29.8548 121.908 31.2183C120.577 32.1226 118.895 32.3384 117.38 31.7986C117.124 30.8209 116.42 30.0219 115.483 29.6443C114.545 29.2668 113.484 29.3554 112.622 29.8831C111.76 30.4108 111.199 31.3153 111.109 32.3221C111.019 33.3288 111.41 34.3186 112.165 34.9911C112.919 35.6636 113.948 35.9394 114.937 35.7344C115.927 35.5296 116.761 34.8682 117.187 33.9514C117.854 34.1125 118.537 34.2002 119.224 34.2126C120.792 34.3008 122.329 33.7472 123.481 32.6789C124.633 31.6108 125.301 30.1198 125.331 28.5492C126.767 30.8782 127.277 33.6615 126.76 36.3484C126.433 38.7013 125.184 40.8277 123.287 42.2581C122.474 42.8344 121.452 43.0305 120.483 42.7958C118.245 42.3502 115.925 42.56 113.803 43.3998C113.749 41.5717 113.159 39.7997 112.105 38.3047C111.052 36.8098 109.581 35.6578 107.878 34.9925C107.517 34.8731 107.12 34.9536 106.834 35.2044C106.549 35.4552 106.418 35.8386 106.49 36.2116C106.561 36.5847 106.825 36.8919 107.184 37.0187C108.849 37.6655 110.212 38.9106 111.007 40.5102C111.802 42.1098 111.971 43.9485 111.481 45.6662C110.624 50.008 107.361 50.4815 102.471 50.7129L102.471 50.7126C100.843 50.7146 99.222 50.9152 97.643 51.3104C92.4658 52.9127 90.0603 60.2851 90.1694 63.9591C90.1772 64.2378 90.2934 64.5026 90.4933 64.697C90.6935 64.8913 90.9615 65.0002 91.2404 65H91.2725C91.5565 64.9917 91.8256 64.8706 92.0204 64.6637C92.2154 64.4569 92.3201 64.1809 92.3114 63.8969C92.2235 60.973 94.2522 54.6028 98.2747 53.3559V53.3561C99.6826 53.0225 101.125 52.8536 102.572 52.8527C106.926 52.6385 112.346 52.3922 113.582 46.0777C113.601 45.9748 113.605 45.8807 113.622 45.78V45.7798C115.59 44.8268 117.805 44.51 119.96 44.874C121.507 45.2548 123.143 44.9596 124.459 44.062C125.642 43.1918 126.641 42.0956 127.398 40.8367C128.155 39.5778 128.655 38.1813 128.869 36.7278C129.687 32.1075 128.066 27.303 125.165 25.4071L125.166 25.4065ZM114.304 33.6489C114.024 33.6494 113.755 33.5387 113.556 33.3408C113.358 33.1431 113.246 32.8745 113.246 32.5942C113.245 32.314 113.356 32.0451 113.554 31.847C113.752 31.6486 114.021 31.5371 114.301 31.5369C114.581 31.5366 114.85 31.6477 115.048 31.8459C115.246 32.044 115.358 32.3127 115.358 32.5929C115.358 32.8725 115.247 33.1409 115.049 33.3388C114.852 33.5367 114.584 33.6483 114.304 33.6489Z" fill="black"/>
<path d="M79.9072 45.4254C79.7492 45.0769 79.4172 44.839 79.0363 44.8018C78.6554 44.7643 78.2835 44.933 78.0606 45.244C77.8377 45.5553 77.7977 45.9616 77.9557 46.3101C78.697 47.7037 79.8101 48.8647 81.1714 49.6637C82.5327 50.4627 84.0888 50.8686 85.6669 50.8362C87.5039 50.7885 89.3148 50.3906 91.0028 49.6646C91.6829 50.3928 92.6649 50.7606 93.656 50.6582C94.6473 50.5558 95.5333 49.9951 96.0501 49.1432C96.5671 48.2913 96.6552 47.2464 96.2884 46.3199C95.9214 45.3933 95.1418 44.6922 94.1816 44.4252C93.2217 44.1583 92.192 44.3562 91.3995 44.9602C90.6069 45.5644 90.1431 46.5047 90.146 47.5011C90.146 47.5676 90.1609 47.6297 90.1652 47.6939C82.5202 50.7376 80.0143 45.6568 79.9069 45.4254L79.9072 45.4254ZM93.3502 46.4474C93.6304 46.4474 93.8991 46.5587 94.0972 46.7568C94.2953 46.955 94.4065 47.2238 94.4062 47.5041C94.406 47.7841 94.2945 48.0528 94.0963 48.2507C93.898 48.4486 93.6291 48.5597 93.3488 48.5592C93.0686 48.5588 92.8002 48.4472 92.6023 48.2486C92.4046 48.0503 92.2937 47.7814 92.2944 47.5012C92.2948 47.2214 92.4064 46.9534 92.6043 46.7557C92.8022 46.5582 93.0706 46.4474 93.3502 46.4474Z" fill="black"/>
<path d="M82.8974 29.6328C82.8624 29.2502 82.6257 28.9153 82.2767 28.7544C81.9277 28.5937 81.5194 28.6312 81.2057 28.853C80.892 29.0748 80.7204 29.4472 80.7554 29.8299C81.0513 31.9337 82.1393 33.8455 83.7971 35.1741C85.7744 36.6365 88.1947 37.374 90.6515 37.2626C91.5596 37.2592 92.4664 37.1943 93.3656 37.0676C95.3142 36.9591 97.1987 36.3339 98.8258 35.256C100.453 34.1781 101.763 32.6865 102.623 30.9345C103.483 29.1823 103.861 27.2331 103.718 25.2865C104.647 24.8664 105.321 24.0306 105.535 23.0338C105.749 22.0371 105.478 20.998 104.803 20.2336C104.129 19.4692 103.132 19.07 102.116 19.1581C101.101 19.246 100.187 19.811 99.6542 20.6801C99.1216 21.5492 99.0328 22.6195 99.4152 23.5644C99.7976 24.5094 100.606 25.2167 101.593 25.4708C101.661 27.4499 101.242 33.8247 93.0717 34.9517V34.9514C91.726 35.2547 90.3331 35.2843 88.9756 35.0384C87.618 34.7928 86.3239 34.2765 85.1699 33.5208C83.9564 32.5515 83.1464 31.1659 82.8972 29.633L82.8974 29.6328ZM102.39 21.3258C102.67 21.3258 102.939 21.4372 103.137 21.6353C103.335 21.8334 103.446 22.1023 103.446 22.3825C103.446 22.6628 103.334 22.9314 103.136 23.1293C102.937 23.3272 102.669 23.4381 102.388 23.4377C102.108 23.4375 101.84 23.3257 101.642 23.1273C101.444 22.9287 101.333 22.6599 101.334 22.3796C101.334 22.0987 101.447 21.8298 101.646 21.6319C101.846 21.4342 102.115 21.324 102.396 21.3258L102.39 21.3258Z" fill="black"/>
<path d="M116.163 28.1802C117.012 28.1749 117.854 28.0301 118.657 27.7518C118.936 27.6693 119.169 27.477 119.304 27.2186C119.438 26.9604 119.461 26.6585 119.368 26.3827C119.275 26.1069 119.074 25.8807 118.811 25.7564C118.548 25.6319 118.245 25.6201 117.973 25.7234C113.218 27.3257 110.275 22.2576 110.15 22.0391C109.96 21.7091 109.609 21.505 109.228 21.5027C108.848 21.5005 108.494 21.7009 108.3 22.0286C108.107 22.3564 108.101 22.7625 108.287 23.095C109.068 24.5352 110.199 25.7557 111.575 26.6442C112.951 27.533 114.529 28.0611 116.163 28.1803L116.163 28.1802Z" fill="black"/>
<path d="M86.1361 19.8841C85.8545 19.8471 85.5698 19.9232 85.3445 20.0959C85.1191 20.2686 84.9717 20.5238 84.9344 20.8052C84.726 22.3068 85.0457 23.8343 85.8394 25.1262C86.6331 26.4181 87.8511 27.3938 89.2849 27.8867C89.3804 28.8875 89.944 29.784 90.8046 30.3036C91.6649 30.8235 92.7208 30.9053 93.6512 30.5243C94.5814 30.1432 95.2765 29.3442 95.5251 28.37C95.7736 27.3958 95.5463 26.3616 94.9123 25.5814C94.2782 24.8011 93.3123 24.3671 92.308 24.4111C91.3037 24.455 90.3793 24.972 89.8159 25.8045C88.8993 25.4355 88.1313 24.7726 87.6322 23.9196C87.1333 23.0665 86.9318 22.0721 87.0592 21.0921C87.0983 20.8094 87.0226 20.5227 86.8492 20.296C86.6759 20.069 86.419 19.9209 86.1361 19.8841ZM92.4531 26.55C92.7333 26.5496 93.0022 26.6603 93.2008 26.8582C93.3991 27.0559 93.5109 27.3245 93.5111 27.6047C93.5116 27.8848 93.4007 28.1536 93.2028 28.352C93.0049 28.5503 92.7362 28.6619 92.456 28.6621C92.1757 28.6624 91.9069 28.551 91.7087 28.3531C91.5106 28.155 91.3993 27.8863 91.3993 27.6061C91.4004 27.3267 91.5117 27.0592 91.709 26.8613C91.9064 26.6636 92.1737 26.5518 92.4531 26.55Z" fill="black"/>
<path d="M105.112 44.303C106.255 44.303 107.31 43.6934 107.882 42.7041C108.453 41.7146 108.453 40.4954 107.882 39.5061C107.31 38.5165 106.255 37.9069 105.112 37.9069C104.194 37.9087 103.322 38.3079 102.721 39.0016C101.415 38.3806 99.9312 38.238 98.5298 38.5984C97.1286 38.959 95.8983 39.7997 95.0531 40.9745C94.8304 41.286 94.7909 41.6925 94.9493 42.041C95.1077 42.3895 95.44 42.6272 95.8211 42.6644C96.2022 42.7015 96.5742 42.5326 96.7968 42.2211C97.3667 41.4404 98.1956 40.8879 99.1356 40.6626C100.076 40.4372 101.065 40.5539 101.927 40.9914C101.927 41.03 101.914 41.0642 101.914 41.1028V41.103C101.917 41.9502 102.255 42.762 102.854 43.3613C103.453 43.9606 104.265 44.2991 105.112 44.3031L105.112 44.303ZM105.112 40.0489C105.392 40.0489 105.661 40.1602 105.859 40.3586C106.057 40.5567 106.168 40.8256 106.168 41.1056C106.168 41.3858 106.056 41.6545 105.858 41.8524C105.66 42.0503 105.391 42.1614 105.111 42.161C104.83 42.1605 104.562 42.049 104.364 41.8504C104.166 41.652 104.056 41.3829 104.056 41.1029C104.057 40.8233 104.169 40.5556 104.367 40.3581C104.565 40.1606 104.832 40.0495 105.112 40.0489Z" fill="black"/>
</g>
<g filter="url(#filter2_d_213_13)">
<path d="M29.875 88.5L49.25 131H35.625L33.5625 125.375H20.3125L18.25 131H4.625L24 88.5H29.875ZM26.9375 107.375L23.75 116H30.125L26.9375 107.375Z" fill="url(#paint0_linear_213_13)"/>
<path d="M80.6875 120.688V131H54.875V120.688H61.9375V99.4375H54.875V89.125H80.6875V99.4375H73.625V120.688H80.6875Z" fill="url(#paint1_linear_213_13)"/>
<path d="M93.5625 120.938C95.1042 120.938 96.4167 121.479 97.5 122.562C98.625 123.646 99.1875 124.979 99.1875 126.562C99.1875 128.104 98.625 129.438 97.5 130.562C96.4167 131.646 95.1042 132.188 93.5625 132.188C92.0208 132.188 90.6875 131.646 89.5625 130.562C88.4792 129.438 87.9375 128.104 87.9375 126.562C87.9375 124.979 88.4792 123.646 89.5625 122.562C90.6875 121.479 92.0208 120.938 93.5625 120.938Z" fill="url(#paint2_linear_213_13)"/>
<path d="M120.438 89V128.062C120.438 131.521 119.708 134.542 118.25 137.125C116.833 139.708 114.854 141.812 112.312 143.438C109.771 145.062 106.812 146.229 103.438 146.938L99.5625 136.812C105.688 135.479 108.75 132.417 108.75 127.625V89H120.438Z" fill="url(#paint3_linear_213_13)"/>
<path d="M143.75 88.1875C146.208 88.1875 148.625 88.5 151 89.125C153.417 89.7083 155.354 90.5 156.812 91.5V102.812C155.021 101.771 153.25 100.875 151.5 100.125C149.75 99.3333 147.688 98.9375 145.312 98.9375C143.938 98.9375 142.75 99.1458 141.75 99.5625C140.75 99.9792 140.25 100.667 140.25 101.625C140.25 102.667 140.854 103.458 142.062 104C143.271 104.5 144.75 105.083 146.5 105.75L151 107.438C154.042 108.604 156.188 110.188 157.438 112.188C158.729 114.188 159.375 116.188 159.375 118.188C159.375 120.854 158.604 123.229 157.062 125.312C155.521 127.354 153.438 128.979 150.812 130.188C148.188 131.354 145.25 131.938 142 131.938C139.5 131.938 137.021 131.5 134.562 130.625C132.104 129.75 129.958 128.667 128.125 127.375V116.062C130.125 117.562 132.271 118.792 134.562 119.75C136.896 120.708 139.229 121.188 141.562 121.188C143.021 121.188 144.188 121.021 145.062 120.688C145.979 120.312 146.438 119.688 146.438 118.812C146.438 118.188 146.104 117.646 145.438 117.188C144.771 116.729 143.875 116.333 142.75 116L136.812 114.125C134.479 113.375 132.667 112.354 131.375 111.062C130.083 109.771 129.188 108.333 128.688 106.75C128.188 105.125 127.938 103.479 127.938 101.812C127.938 98.8542 128.688 96.375 130.188 94.375C131.688 92.3333 133.646 90.7917 136.062 89.75C138.479 88.7083 141.042 88.1875 143.75 88.1875Z" fill="url(#paint4_linear_213_13)"/>
<path d="M206 89.125L191.938 109.375L206 131H191.625L183.938 118.5L176.25 131H161.875L176.562 110.312L161.875 89.125H176.25L184.562 101.812L191.625 89.125H206Z" fill="url(#paint5_linear_213_13)"/>
</g>
<g filter="url(#filter3_d_213_13)">
<path fill-rule="evenodd" clip-rule="evenodd" d="M33.5625 125.375L35.625 131H49.25L29.875 88.5H24L4.625 131H18.25L20.3125 125.375H33.5625ZM17.5516 130L19.6141 124.375H34.2609L36.3234 130H47.6951L29.2319 89.5H24.6431L6.17989 130H17.5516ZM26.9375 104.49L31.5607 117H22.3143L26.9375 104.49ZM61.9375 120.688H54.875V131H80.6875V120.688H73.625V99.4375H80.6875V89.125H54.875V99.4375H61.9375V120.688ZM55.875 98.4375H62.9375V121.688H55.875V130H79.6875V121.688H72.625V98.4375H79.6875V90.125H55.875V98.4375ZM96.7996 123.276L96.7929 123.27C95.8984 122.375 94.8408 121.938 93.5625 121.938C92.2864 121.938 91.2028 122.374 90.263 123.276C89.3785 124.164 88.9375 125.238 88.9375 126.562C88.9375 127.836 89.3721 128.917 90.2698 129.855C91.208 130.753 92.2894 131.188 93.5625 131.188C94.8408 131.188 95.8984 130.75 96.7929 129.855C97.7371 128.911 98.1875 127.83 98.1875 126.562C98.1875 125.247 97.7326 124.175 96.8064 123.283L96.7996 123.276ZM89.5625 130.562C88.4792 129.438 87.9375 128.104 87.9375 126.562C87.9375 124.979 88.4792 123.646 89.5625 122.562C90.6875 121.479 92.0208 120.938 93.5625 120.938C95.1042 120.938 96.4167 121.479 97.5 122.562C98.625 123.646 99.1875 124.979 99.1875 126.562C99.1875 128.104 98.625 129.438 97.5 130.562C96.4167 131.646 95.1042 132.188 93.5625 132.188C92.0208 132.188 90.6875 131.646 89.5625 130.562ZM118.25 137.125C119.708 134.542 120.438 131.521 120.438 128.062V89H108.75V127.625C108.75 132.154 106.014 135.138 100.543 136.577C100.226 136.661 99.8986 136.739 99.5625 136.812L103.438 146.938C106.812 146.229 109.771 145.062 112.312 143.438C114.854 141.812 116.833 139.708 118.25 137.125ZM104.063 145.773C106.989 145.076 109.555 144.014 111.774 142.595C114.178 141.058 116.039 139.077 117.373 136.644L117.379 136.633C118.74 134.223 119.438 131.377 119.438 128.062V90H109.75V127.625C109.75 130.255 108.9 132.483 107.16 134.223C105.654 135.729 103.542 136.808 100.903 137.517L104.063 145.773ZM150.755 90.0947L150.746 90.0921C148.454 89.489 146.123 89.1875 143.75 89.1875C141.174 89.1875 138.746 89.6821 136.458 90.6683C134.198 91.6425 132.384 93.0744 130.993 94.9671L130.988 94.975C129.64 96.7718 128.938 99.0296 128.938 101.812C128.938 103.376 129.172 104.922 129.642 106.452C130.089 107.866 130.893 109.167 132.082 110.355C133.229 111.503 134.886 112.455 137.116 113.172C137.117 113.173 137.118 113.173 137.119 113.173L143.034 115.041C143.037 115.042 143.04 115.043 143.043 115.044C144.224 115.394 145.223 115.827 146.004 116.363C146.853 116.947 147.438 117.763 147.438 118.812C147.438 119.434 147.271 120.023 146.9 120.529C146.535 121.026 146.023 121.375 145.441 121.613L145.43 121.618L145.419 121.622C144.385 122.016 143.082 122.188 141.562 122.188C139.089 122.188 136.627 121.679 134.183 120.675L134.177 120.673C132.409 119.933 130.725 119.038 129.125 117.987V126.848C130.78 127.954 132.702 128.901 134.898 129.683C137.253 130.521 139.619 130.938 142 130.938C145.126 130.938 147.921 130.377 150.401 129.276C152.89 128.129 154.832 126.605 156.261 124.715C157.67 122.809 158.375 120.645 158.375 118.188C158.375 116.414 157.805 114.6 156.597 112.73L156.593 112.724L156.59 112.717C155.492 110.961 153.558 109.49 150.645 108.372C150.644 108.372 150.643 108.372 150.642 108.371L146.144 106.684C144.389 106.016 142.9 105.429 141.68 104.924L141.667 104.918L141.653 104.913C140.945 104.595 140.339 104.172 139.908 103.607C139.467 103.028 139.25 102.354 139.25 101.625C139.25 100.963 139.426 100.339 139.816 99.8025C140.2 99.2746 140.742 98.8992 141.365 98.6394C142.515 98.1603 143.84 97.9375 145.312 97.9375C147.793 97.9375 149.999 98.3502 151.903 99.2097C153.197 99.7649 154.501 100.397 155.812 101.105V92.0431C154.534 91.2592 152.862 90.6031 150.765 90.0971L150.755 90.0947ZM156.812 91.5V102.812C156.478 102.618 156.145 102.429 155.812 102.245C154.361 101.442 152.924 100.735 151.5 100.125C149.75 99.3333 147.688 98.9375 145.312 98.9375C143.938 98.9375 142.75 99.1458 141.75 99.5625C140.75 99.9792 140.25 100.667 140.25 101.625C140.25 102.667 140.854 103.458 142.062 104C143.271 104.5 144.75 105.083 146.5 105.75L151 107.438C154.042 108.604 156.188 110.188 157.438 112.188C158.729 114.188 159.375 116.188 159.375 118.188C159.375 120.854 158.604 123.229 157.062 125.312C155.521 127.354 153.438 128.979 150.812 130.188C148.188 131.354 145.25 131.938 142 131.938C139.5 131.938 137.021 131.5 134.562 130.625C132.104 129.75 129.958 128.667 128.125 127.375V116.062C128.454 116.31 128.788 116.549 129.125 116.782C130.836 117.96 132.648 118.949 134.562 119.75C136.896 120.708 139.229 121.188 141.562 121.188C143.021 121.188 144.188 121.021 145.062 120.688C145.979 120.312 146.438 119.688 146.438 118.812C146.438 118.188 146.104 117.646 145.438 117.188C144.771 116.729 143.875 116.333 142.75 116L136.812 114.125C134.479 113.375 132.667 112.354 131.375 111.062C130.083 109.771 129.188 108.333 128.688 106.75C128.188 105.125 127.938 103.479 127.938 101.812C127.938 98.8542 128.688 96.375 130.188 94.375C131.688 92.3333 133.646 90.7917 136.062 89.75C138.479 88.7083 141.042 88.1875 143.75 88.1875C146.208 88.1875 148.625 88.5 151 89.125C153.417 89.7083 155.354 90.5 156.812 91.5ZM191.938 109.375L206 89.125H191.625L184.562 101.812L176.25 89.125H161.875L176.562 110.312L161.875 131H176.25L183.938 118.5L191.625 131H206L191.938 109.375ZM204.157 130L190.733 109.357L204.088 90.125H192.213L184.632 103.743L175.71 90.125H163.785L177.784 110.319L163.811 130H175.691L183.938 116.591L192.184 130H204.157ZM23.75 116H30.125L26.9375 107.375L23.75 116Z" fill="black"/>
</g>
<defs>
<filter id="filter0_d_213_13" x="19.75" y="15.9375" width="179.5" height="64.5625" filterUnits="userSpaceOnUse" color-interpolation-filters="sRGB">
<feFlood flood-opacity="0" result="BackgroundImageFix"/>
<feColorMatrix in="SourceAlpha" type="matrix" values="0 0 0 0 0 0 0 0 0 0 0 0 0 0 0 0 0 0 127 0" result="hardAlpha"/>
<feOffset dy="4"/>
<feGaussianBlur stdDeviation="2"/>
<feComposite in2="hardAlpha" operator="out"/>
<feColorMatrix type="matrix" values="0 0 0 0 0 0 0 0 0 0 0 0 0 0 0 0 0 0 0.25 0"/>
<feBlend mode="normal" in2="BackgroundImageFix" result="effect1_dropShadow_213_13"/>
<feBlend mode="normal" in="SourceGraphic" in2="effect1_dropShadow_213_13" result="shape"/>
</filter>
<filter id="filter1_d_213_13" x="63" y="11" width="70.0805" height="62" filterUnits="userSpaceOnUse" color-interpolation-filters="sRGB">
<feFlood flood-opacity="0" result="BackgroundImageFix"/>
<feColorMatrix in="SourceAlpha" type="matrix" values="0 0 0 0 0 0 0 0 0 0 0 0 0 0 0 0 0 0 127 0" result="hardAlpha"/>
<feOffset dy="4"/>
<feGaussianBlur stdDeviation="2"/>
<feComposite in2="hardAlpha" operator="out"/>
<feColorMatrix type="matrix" values="0 0 0 0 0 0 0 0 0 0 0 0 0 0 0 0 0 0 0.25 0"/>
<feBlend mode="normal" in2="BackgroundImageFix" result="effect1_dropShadow_213_13"/>
<feBlend mode="normal" in="SourceGraphic" in2="effect1_dropShadow_213_13" result="shape"/>
</filter>
<filter id="filter2_d_213_13" x="0.625" y="88.1875" width="209.375" height="66.75" filterUnits="userSpaceOnUse" color-interpolation-filters="sRGB">
<feFlood flood-opacity="0" result="BackgroundImageFix"/>
<feColorMatrix in="SourceAlpha" type="matrix" values="0 0 0 0 0 0 0 0 0 0 0 0 0 0 0 0 0 0 127 0" result="hardAlpha"/>
<feOffset dy="4"/>
<feGaussianBlur stdDeviation="2"/>
<feComposite in2="hardAlpha" operator="out"/>
<feColorMatrix type="matrix" values="0 0 0 0 0 0 0 0 0 0 0 0 0 0 0 0 0 0 0.25 0"/>
<feBlend mode="normal" in2="BackgroundImageFix" result="effect1_dropShadow_213_13"/>
<feBlend mode="normal" in="SourceGraphic" in2="effect1_dropShadow_213_13" result="shape"/>
</filter>
<filter id="filter3_d_213_13" x="0.625" y="88.1875" width="209.375" height="66.75" filterUnits="userSpaceOnUse" color-interpolation-filters="sRGB">
<feFlood flood-opacity="0" result="BackgroundImageFix"/>
<feColorMatrix in="SourceAlpha" type="matrix" values="0 0 0 0 0 0 0 0 0 0 0 0 0 0 0 0 0 0 127 0" result="hardAlpha"/>
<feOffset dy="4"/>
<feGaussianBlur stdDeviation="2"/>
<feComposite in2="hardAlpha" operator="out"/>
<feColorMatrix type="matrix" values="0 0 0 0 0 0 0 0 0 0 0 0 0 0 0 0 0 0 0.25 0"/>
<feBlend mode="normal" in2="BackgroundImageFix" result="effect1_dropShadow_213_13"/>
<feBlend mode="normal" in="SourceGraphic" in2="effect1_dropShadow_213_13" result="shape"/>
</filter>
<linearGradient id="paint0_linear_213_13" x1="181.5" y1="89" x2="182" y2="148" gradientUnits="userSpaceOnUse">
<stop stop-color="#FF4D00"/>
<stop offset="1" stop-color="#5A1C01"/>
</linearGradient>
<linearGradient id="paint1_linear_213_13" x1="181.5" y1="89" x2="182" y2="148" gradientUnits="userSpaceOnUse">
<stop stop-color="#FF4D00"/>
<stop offset="1" stop-color="#5A1C01"/>
</linearGradient>
<linearGradient id="paint2_linear_213_13" x1="181.5" y1="89" x2="182" y2="148" gradientUnits="userSpaceOnUse">
<stop stop-color="#FF4D00"/>
<stop offset="1" stop-color="#5A1C01"/>
</linearGradient>
<linearGradient id="paint3_linear_213_13" x1="181.5" y1="89" x2="182" y2="148" gradientUnits="userSpaceOnUse">
<stop stop-color="#FF4D00"/>
<stop offset="1" stop-color="#5A1C01"/>
</linearGradient>
<linearGradient id="paint4_linear_213_13" x1="181.5" y1="89" x2="182" y2="148" gradientUnits="userSpaceOnUse">
<stop stop-color="#FF4D00"/>
<stop offset="1" stop-color="#5A1C01"/>
</linearGradient>
<linearGradient id="paint5_linear_213_13" x1="181.5" y1="89" x2="182" y2="148" gradientUnits="userSpaceOnUse">
<stop stop-color="#FF4D00"/>
<stop offset="1" stop-color="#5A1C01"/>
</linearGradient>
</defs>
</svg>
