<svg width="210" height="155" viewBox="0 0 210 155" fill="none" xmlns="http://www.w3.org/2000/svg">
<g filter="url(#filter0_d_213_10)">
<path d="M53.125 22.9375V34.0625L37.75 41.0625L53.125 48.875V60L23.75 42.75V39.5625L53.125 22.9375ZM159.625 15.9375L143 72.5H135L151.438 15.9375H159.625ZM165.875 22.9375L195.25 39.5625V42.75L165.875 60V48.875L181.25 41.0625L165.875 34.0625V22.9375Z" fill="white"/>
</g>
<g filter="url(#filter1_d_213_10)">
<path d="M125.166 22.4065C124.819 20.5191 123.893 18.7867 122.515 17.4511C121.138 16.1152 119.377 15.2423 117.48 14.9543C116.625 13.5888 115.341 12.5461 113.829 11.9903C112.316 11.4347 110.662 11.3976 109.126 11.8849C107.838 10.0265 105.848 8.77281 103.615 8.41266C101.81 8.23461 99.9988 8.68889 98.4914 9.69787C97.186 8.58248 95.52 7.97935 93.8033 8.00054C92.0863 8.02196 90.4359 8.66611 89.1587 9.81342C87.5411 9.4611 85.8556 9.59297 84.3126 10.193C82.7697 10.7932 81.4379 11.8345 80.4836 13.1871C78.0912 13.2214 75.8111 14.2074 74.1472 15.9269C72.8522 17.43 72.0983 19.3235 72.0052 21.3053C69.9045 21.906 68.1866 23.4214 67.3292 25.4309C66.7169 27.5031 66.9655 29.7348 68.0188 31.6216C67.0946 34.0416 67.081 36.7149 67.9802 39.1444C68.9511 41.2183 70.7137 42.8157 72.8727 43.5783C72.9602 44.984 73.2183 46.3737 73.6416 47.7166C75.3916 53.3758 80.9907 54.8087 84.6709 54.8087H84.7673L84.1247 59.7931H84.125C84.0884 60.0749 84.1656 60.3596 84.3389 60.5845C84.5125 60.8096 84.7685 60.9565 85.0503 60.9926H85.1895C85.4517 60.9948 85.7054 60.9007 85.9028 60.7282C86.1 60.5555 86.2275 60.3168 86.2605 60.0566L87.0595 53.7933C87.1001 53.4669 86.9887 53.14 86.7574 52.9064C86.528 52.6688 86.2004 52.553 85.8727 52.5938C85.5364 52.6302 77.6622 53.4506 75.6899 47.0782C73.837 41.0806 75.7349 36.1859 80.7622 33.9822V33.982C81.0311 33.8742 81.245 33.6623 81.3548 33.3941C81.4648 33.1259 81.4612 32.8249 81.3454 32.5591C81.2294 32.2936 81.0107 32.0866 80.7395 31.9848C80.4681 31.8833 80.1671 31.896 79.9054 32.02C78.024 32.8012 76.386 34.0717 75.1615 35.6996C73.9369 37.3275 73.1706 39.2536 72.9416 41.2778C71.631 40.6671 70.577 39.6146 69.9642 38.3046C69.2621 36.2391 69.3384 33.9882 70.1784 31.9751C70.3203 31.6478 70.2931 31.2718 70.1057 30.9683C69.2179 29.5337 68.9423 27.8031 69.3408 26.1638C70.1349 24.5635 71.6352 23.4298 73.3914 23.1029C73.6228 23.0324 73.8234 22.8856 73.9608 22.6864C74.0981 22.4873 74.1639 22.2475 74.1476 22.0063C74.0994 20.3107 74.6679 18.6554 75.7477 17.3475C77.1725 15.952 79.1097 15.2057 81.1027 15.2847C81.4606 15.2737 81.7893 15.085 81.9787 14.7813C82.7027 13.605 83.7887 12.6951 85.0734 12.1879C86.3584 11.681 87.7731 11.604 89.1053 11.9688C93.4108 13.3504 92.5196 18.2321 92.479 18.44C92.4221 18.7184 92.4783 19.0083 92.6352 19.2455C92.792 19.4829 93.0368 19.648 93.3152 19.7047C93.5939 19.7616 93.8838 19.7053 94.1209 19.5485C94.3581 19.3916 94.5234 19.1469 94.5801 18.8684C94.9199 17.356 94.8059 15.7772 94.2528 14.3293C93.6997 12.8815 92.7315 11.6291 91.4699 10.7288C92.4841 10.2165 93.6363 10.0451 94.7557 10.2403C95.8749 10.4358 96.9011 10.9871 97.6818 11.8125C97.8739 12.0028 98.1307 12.1132 98.4009 12.1219C98.6709 12.1306 98.9344 12.0369 99.1383 11.8595C100.331 10.8927 101.848 10.4184 103.38 10.5337C105.262 10.9231 106.887 12.1005 107.843 13.7682C107.982 13.9685 108.185 14.1153 108.419 14.1847C108.653 14.2541 108.903 14.2416 109.129 14.1495C110.342 13.6372 111.702 13.5903 112.948 14.0174C114.194 14.4447 115.238 15.316 115.882 16.4649C116.053 16.7806 116.371 16.9897 116.728 17.0218C118.34 17.1684 119.853 17.8581 121.021 18.978C122.188 20.0976 122.941 21.5809 123.154 23.1846C123.608 24.9654 123.14 26.8548 121.908 28.2183C120.577 29.1226 118.895 29.3384 117.38 28.7986C117.124 27.8209 116.42 27.0219 115.483 26.6443C114.545 26.2668 113.484 26.3554 112.622 26.8831C111.76 27.4108 111.199 28.3153 111.109 29.3221C111.019 30.3288 111.41 31.3186 112.165 31.9911C112.919 32.6636 113.948 32.9394 114.937 32.7344C115.927 32.5296 116.761 31.8682 117.187 30.9514C117.854 31.1125 118.537 31.2002 119.224 31.2126C120.792 31.3008 122.329 30.7472 123.481 29.6789C124.633 28.6108 125.301 27.1198 125.331 25.5492C126.767 27.8782 127.277 30.6615 126.76 33.3484C126.433 35.7013 125.184 37.8277 123.287 39.2581C122.474 39.8344 121.452 40.0305 120.483 39.7958C118.245 39.3502 115.925 39.56 113.803 40.3998C113.749 38.5717 113.159 36.7997 112.105 35.3047C111.052 33.8098 109.581 32.6578 107.878 31.9925C107.517 31.8731 107.12 31.9536 106.834 32.2044C106.549 32.4552 106.418 32.8386 106.49 33.2116C106.561 33.5847 106.825 33.8919 107.184 34.0187C108.849 34.6655 110.212 35.9106 111.007 37.5102C111.802 39.1098 111.971 40.9485 111.481 42.6662C110.624 47.008 107.361 47.4815 102.471 47.7129L102.471 47.7126C100.843 47.7146 99.222 47.9152 97.643 48.3104C92.4658 49.9127 90.0603 57.2851 90.1694 60.9591C90.1772 61.2378 90.2934 61.5026 90.4933 61.697C90.6935 61.8913 90.9615 62.0002 91.2404 62H91.2725C91.5565 61.9917 91.8256 61.8706 92.0204 61.6637C92.2154 61.4569 92.3201 61.1809 92.3114 60.8969C92.2235 57.973 94.2522 51.6028 98.2747 50.3559V50.3561C99.6826 50.0225 101.125 49.8536 102.572 49.8527C106.926 49.6385 112.346 49.3922 113.582 43.0777C113.601 42.9748 113.605 42.8807 113.622 42.78V42.7798C115.59 41.8268 117.805 41.51 119.96 41.874C121.507 42.2548 123.143 41.9596 124.459 41.062C125.642 40.1918 126.641 39.0956 127.398 37.8367C128.155 36.5778 128.655 35.1813 128.869 33.7278C129.687 29.1075 128.066 24.303 125.165 22.4071L125.166 22.4065ZM114.304 30.6489C114.024 30.6494 113.755 30.5387 113.556 30.3408C113.358 30.1431 113.246 29.8745 113.246 29.5942C113.245 29.314 113.356 29.0451 113.554 28.847C113.752 28.6486 114.021 28.5371 114.301 28.5368C114.581 28.5366 114.85 28.6477 115.048 28.8459C115.246 29.044 115.358 29.3127 115.358 29.5929C115.358 29.8725 115.247 30.1409 115.049 30.3388C114.852 30.5367 114.584 30.6483 114.304 30.6489Z" fill="white"/>
<path d="M79.9072 42.4254C79.7492 42.0769 79.4172 41.839 79.0363 41.8018C78.6554 41.7643 78.2835 41.933 78.0606 42.244C77.8377 42.5553 77.7977 42.9616 77.9557 43.3101C78.697 44.7037 79.8101 45.8647 81.1714 46.6637C82.5327 47.4627 84.0888 47.8686 85.6669 47.8362C87.5039 47.7885 89.3148 47.3906 91.0028 46.6646C91.6829 47.3928 92.6649 47.7606 93.656 47.6582C94.6473 47.5558 95.5333 46.9951 96.0501 46.1432C96.5671 45.2913 96.6552 44.2464 96.2884 43.3199C95.9214 42.3933 95.1418 41.6922 94.1816 41.4252C93.2217 41.1583 92.192 41.3562 91.3995 41.9602C90.6069 42.5644 90.1431 43.5047 90.146 44.5011C90.146 44.5676 90.1609 44.6297 90.1652 44.6939C82.5202 47.7376 80.0143 42.6568 79.9069 42.4254L79.9072 42.4254ZM93.3502 43.4474C93.6304 43.4474 93.8991 43.5587 94.0972 43.7568C94.2953 43.955 94.4065 44.2238 94.4062 44.5041C94.406 44.7841 94.2945 45.0528 94.0963 45.2507C93.898 45.4486 93.6291 45.5597 93.3488 45.5592C93.0686 45.5588 92.8002 45.4472 92.6023 45.2486C92.4046 45.0503 92.2937 44.7814 92.2944 44.5012C92.2948 44.2214 92.4064 43.9534 92.6043 43.7557C92.8022 43.5582 93.0706 43.4474 93.3502 43.4474Z" fill="white"/>
<path d="M82.8974 26.6328C82.8624 26.2502 82.6256 25.9153 82.2767 25.7544C81.9277 25.5937 81.5194 25.6312 81.2057 25.853C80.892 26.0748 80.7204 26.4472 80.7554 26.8299C81.0513 28.9337 82.1393 30.8455 83.7971 32.1741C85.7744 33.6365 88.1946 34.374 90.6515 34.2626C91.5596 34.2592 92.4664 34.1943 93.3656 34.0676C95.3142 33.9591 97.1987 33.3339 98.8257 32.256C100.453 31.1781 101.763 29.6865 102.623 27.9345C103.483 26.1823 103.861 24.2331 103.718 22.2865C104.647 21.8664 105.321 21.0306 105.535 20.0338C105.749 19.0371 105.478 17.998 104.803 17.2336C104.129 16.4692 103.132 16.07 102.116 16.1581C101.101 16.246 100.187 16.811 99.6542 17.6801C99.1216 18.5492 99.0328 19.6195 99.4152 20.5644C99.7976 21.5094 100.606 22.2167 101.593 22.4708C101.661 24.4499 101.242 30.8247 93.0717 31.9517V31.9514C91.726 32.2547 90.3331 32.2843 88.9756 32.0384C87.618 31.7928 86.3239 31.2765 85.1699 30.5208C83.9563 29.5515 83.1464 28.1659 82.8972 26.633L82.8974 26.6328ZM102.39 18.3258C102.67 18.3258 102.939 18.4372 103.137 18.6353C103.335 18.8334 103.446 19.1023 103.446 19.3825C103.446 19.6628 103.334 19.9314 103.136 20.1293C102.937 20.3272 102.669 20.4381 102.388 20.4377C102.108 20.4375 101.84 20.3257 101.642 20.1273C101.444 19.9287 101.333 19.6599 101.334 19.3796C101.334 19.0987 101.447 18.8298 101.646 18.6319C101.845 18.4342 102.115 18.324 102.396 18.3258L102.39 18.3258Z" fill="white"/>
<path d="M116.163 25.1802C117.012 25.1749 117.854 25.0301 118.656 24.7518C118.936 24.6693 119.169 24.477 119.304 24.2186C119.438 23.9604 119.461 23.6585 119.368 23.3827C119.275 23.1069 119.074 22.8807 118.811 22.7564C118.548 22.6319 118.245 22.6201 117.973 22.7234C113.218 24.3257 110.275 19.2576 110.15 19.0391C109.96 18.7091 109.609 18.505 109.228 18.5027C108.848 18.5005 108.494 18.7009 108.3 19.0286C108.107 19.3564 108.101 19.7625 108.287 20.095C109.068 21.5352 110.199 22.7557 111.575 23.6442C112.951 24.533 114.529 25.0611 116.163 25.1803L116.163 25.1802Z" fill="white"/>
<path d="M86.1361 16.8841C85.8545 16.8471 85.5698 16.9232 85.3445 17.0959C85.1191 17.2686 84.9716 17.5238 84.9344 17.8052C84.726 19.3068 85.0457 20.8343 85.8394 22.1262C86.6331 23.4181 87.8511 24.3938 89.2849 24.8867C89.3804 25.8875 89.944 26.784 90.8046 27.3036C91.6649 27.8235 92.7208 27.9053 93.6512 27.5243C94.5814 27.1432 95.2765 26.3442 95.525 25.37C95.7736 24.3958 95.5462 23.3616 94.9123 22.5814C94.2782 21.8011 93.3123 21.3671 92.308 21.4111C91.3037 21.455 90.3793 21.972 89.8159 22.8045C88.8993 22.4355 88.1313 21.7726 87.6322 20.9196C87.1333 20.0665 86.9318 19.0721 87.0592 18.0921C87.0982 17.8094 87.0226 17.5227 86.8492 17.296C86.6759 17.069 86.419 16.9209 86.1361 16.8841ZM92.453 23.55C92.7333 23.5496 93.0022 23.6603 93.2008 23.8582C93.3991 24.0559 93.5109 24.3245 93.5111 24.6047C93.5116 24.8848 93.4007 25.1536 93.2028 25.352C93.0048 25.5503 92.7362 25.6619 92.456 25.6621C92.1757 25.6624 91.9069 25.551 91.7087 25.3531C91.5106 25.155 91.3992 24.8863 91.3992 24.6061C91.4004 24.3267 91.5117 24.0592 91.7089 23.8613C91.9064 23.6636 92.1737 23.5518 92.453 23.55Z" fill="white"/>
<path d="M105.112 41.303C106.255 41.303 107.31 40.6934 107.882 39.7041C108.453 38.7146 108.453 37.4954 107.882 36.5061C107.31 35.5165 106.255 34.9069 105.112 34.9069C104.194 34.9087 103.322 35.3079 102.721 36.0016C101.415 35.3806 99.9312 35.238 98.5298 35.5984C97.1286 35.959 95.8983 36.7997 95.0531 37.9745C94.8304 38.286 94.7909 38.6925 94.9493 39.041C95.1077 39.3895 95.44 39.6272 95.8211 39.6644C96.2022 39.7015 96.5742 39.5326 96.7968 39.2211C97.3667 38.4404 98.1956 37.8879 99.1356 37.6626C100.076 37.4372 101.065 37.5539 101.927 37.9914C101.927 38.03 101.914 38.0642 101.914 38.1028V38.103C101.917 38.9502 102.255 39.762 102.854 40.3613C103.453 40.9606 104.265 41.2991 105.112 41.3031L105.112 41.303ZM105.112 37.0489C105.392 37.0489 105.661 37.1602 105.859 37.3586C106.057 37.5567 106.168 37.8256 106.168 38.1056C106.168 38.3858 106.056 38.6545 105.858 38.8524C105.66 39.0503 105.391 39.1614 105.111 39.161C104.83 39.1605 104.562 39.049 104.364 38.8504C104.166 38.652 104.056 38.3829 104.056 38.1029C104.057 37.8233 104.169 37.5556 104.367 37.3581C104.565 37.1606 104.832 37.0495 105.112 37.0489Z" fill="white"/>
</g>
<g filter="url(#filter2_d_213_10)">
<path d="M29.875 88.5L49.25 131H35.625L33.5625 125.375H20.3125L18.25 131H4.625L24 88.5H29.875ZM26.9375 107.375L23.75 116H30.125L26.9375 107.375Z" fill="url(#paint0_linear_213_10)"/>
<path d="M80.6875 120.688V131H54.875V120.688H61.9375V99.4375H54.875V89.125H80.6875V99.4375H73.625V120.688H80.6875Z" fill="url(#paint1_linear_213_10)"/>
<path d="M93.5625 120.938C95.1042 120.938 96.4167 121.479 97.5 122.562C98.625 123.646 99.1875 124.979 99.1875 126.562C99.1875 128.104 98.625 129.438 97.5 130.562C96.4167 131.646 95.1042 132.188 93.5625 132.188C92.0208 132.188 90.6875 131.646 89.5625 130.562C88.4792 129.438 87.9375 128.104 87.9375 126.562C87.9375 124.979 88.4792 123.646 89.5625 122.562C90.6875 121.479 92.0208 120.938 93.5625 120.938Z" fill="url(#paint2_linear_213_10)"/>
<path d="M120.438 89V128.062C120.438 131.521 119.708 134.542 118.25 137.125C116.833 139.708 114.854 141.812 112.312 143.438C109.771 145.062 106.812 146.229 103.438 146.938L99.5625 136.812C105.688 135.479 108.75 132.417 108.75 127.625V89H120.438Z" fill="url(#paint3_linear_213_10)"/>
<path d="M143.75 88.1875C146.208 88.1875 148.625 88.5 151 89.125C153.417 89.7083 155.354 90.5 156.812 91.5V102.812C155.021 101.771 153.25 100.875 151.5 100.125C149.75 99.3333 147.688 98.9375 145.312 98.9375C143.938 98.9375 142.75 99.1458 141.75 99.5625C140.75 99.9792 140.25 100.667 140.25 101.625C140.25 102.667 140.854 103.458 142.062 104C143.271 104.5 144.75 105.083 146.5 105.75L151 107.438C154.042 108.604 156.188 110.188 157.438 112.188C158.729 114.188 159.375 116.188 159.375 118.188C159.375 120.854 158.604 123.229 157.062 125.312C155.521 127.354 153.438 128.979 150.812 130.188C148.188 131.354 145.25 131.938 142 131.938C139.5 131.938 137.021 131.5 134.562 130.625C132.104 129.75 129.958 128.667 128.125 127.375V116.062C130.125 117.562 132.271 118.792 134.562 119.75C136.896 120.708 139.229 121.188 141.562 121.188C143.021 121.188 144.188 121.021 145.062 120.688C145.979 120.312 146.438 119.688 146.438 118.812C146.438 118.188 146.104 117.646 145.438 117.188C144.771 116.729 143.875 116.333 142.75 116L136.812 114.125C134.479 113.375 132.667 112.354 131.375 111.062C130.083 109.771 129.188 108.333 128.688 106.75C128.188 105.125 127.938 103.479 127.938 101.812C127.938 98.8542 128.688 96.375 130.188 94.375C131.688 92.3333 133.646 90.7917 136.062 89.75C138.479 88.7083 141.042 88.1875 143.75 88.1875Z" fill="url(#paint4_linear_213_10)"/>
<path d="M206 89.125L191.938 109.375L206 131H191.625L183.938 118.5L176.25 131H161.875L176.562 110.312L161.875 89.125H176.25L184.562 101.812L191.625 89.125H206Z" fill="url(#paint5_linear_213_10)"/>
</g>
<g filter="url(#filter3_d_213_10)">
<path fill-rule="evenodd" clip-rule="evenodd" d="M33.5625 125.375L35.625 131H49.25L29.875 88.5H24L4.625 131H18.25L20.3125 125.375H33.5625ZM17.5516 130L19.6141 124.375H34.2609L36.3234 130H47.6951L29.2319 89.5H24.6431L6.17989 130H17.5516ZM26.9375 104.49L31.5607 117H22.3143L26.9375 104.49ZM23.75 116H30.125L26.9375 107.375L23.75 116ZM61.9375 120.688H54.875V131H80.6875V120.688H73.625V99.4375H80.6875V89.125H54.875V99.4375H61.9375V120.688ZM55.875 98.4375H62.9375V121.688H55.875V130H79.6875V121.688H72.625V98.4375H79.6875V90.125H55.875V98.4375ZM96.7996 123.276L96.7929 123.27C95.8984 122.375 94.8408 121.938 93.5625 121.938C92.2864 121.938 91.2028 122.374 90.263 123.276C89.3785 124.164 88.9375 125.238 88.9375 126.562C88.9375 127.836 89.3721 128.917 90.2698 129.855C91.208 130.753 92.2894 131.188 93.5625 131.188C94.8408 131.188 95.8984 130.75 96.7929 129.855C97.7371 128.911 98.1875 127.83 98.1875 126.562C98.1875 125.247 97.7326 124.175 96.8064 123.283L96.7996 123.276ZM89.5625 130.562C88.4792 129.438 87.9375 128.104 87.9375 126.562C87.9375 124.979 88.4792 123.646 89.5625 122.562C90.6875 121.479 92.0208 120.938 93.5625 120.938C95.1042 120.938 96.4167 121.479 97.5 122.562C98.625 123.646 99.1875 124.979 99.1875 126.562C99.1875 128.104 98.625 129.438 97.5 130.562C96.4167 131.646 95.1042 132.188 93.5625 132.188C92.0208 132.188 90.6875 131.646 89.5625 130.562ZM118.25 137.125C119.708 134.542 120.438 131.521 120.438 128.062V89H108.75V127.625C108.75 132.154 106.014 135.138 100.543 136.577C100.226 136.661 99.8986 136.739 99.5625 136.812L103.438 146.938C106.812 146.229 109.771 145.062 112.312 143.438C114.854 141.812 116.833 139.708 118.25 137.125ZM104.063 145.773C106.989 145.076 109.555 144.014 111.774 142.595C114.178 141.058 116.039 139.077 117.373 136.644L117.379 136.633C118.74 134.223 119.438 131.377 119.438 128.062V90H109.75V127.625C109.75 130.255 108.9 132.483 107.16 134.223C105.654 135.729 103.542 136.808 100.903 137.517L104.063 145.773ZM150.755 90.0947L150.746 90.0921C148.454 89.489 146.123 89.1875 143.75 89.1875C141.174 89.1875 138.746 89.6821 136.458 90.6683C134.198 91.6425 132.384 93.0744 130.993 94.9671L130.988 94.975C129.64 96.7718 128.938 99.0296 128.938 101.812C128.938 103.376 129.172 104.922 129.642 106.452C130.089 107.866 130.893 109.167 132.082 110.355C133.229 111.503 134.886 112.455 137.117 113.172C137.117 113.173 137.118 113.173 137.119 113.173L143.034 115.041C143.037 115.042 143.04 115.043 143.043 115.044C144.224 115.394 145.223 115.827 146.004 116.363C146.853 116.947 147.438 117.763 147.438 118.812C147.438 119.434 147.271 120.023 146.9 120.529C146.535 121.026 146.023 121.375 145.441 121.613L145.43 121.618L145.419 121.622C144.385 122.016 143.082 122.188 141.562 122.188C139.089 122.188 136.627 121.679 134.183 120.675L134.177 120.673C132.409 119.933 130.725 119.038 129.125 117.987V126.848C130.78 127.954 132.702 128.901 134.898 129.683C137.253 130.521 139.619 130.938 142 130.938C145.126 130.938 147.921 130.377 150.401 129.276C152.89 128.129 154.832 126.605 156.261 124.715C157.67 122.809 158.375 120.645 158.375 118.188C158.375 116.414 157.805 114.6 156.597 112.73L156.593 112.724L156.59 112.717C155.492 110.961 153.558 109.49 150.645 108.372C150.644 108.372 150.643 108.372 150.642 108.371L146.144 106.685C144.389 106.016 142.9 105.429 141.68 104.924L141.667 104.918L141.653 104.913C140.945 104.595 140.339 104.172 139.908 103.607C139.467 103.028 139.25 102.354 139.25 101.625C139.25 100.963 139.426 100.339 139.816 99.8025C140.2 99.2746 140.742 98.8992 141.365 98.6394C142.515 98.1603 143.84 97.9375 145.312 97.9375C147.793 97.9375 149.999 98.3502 151.903 99.2097C153.197 99.7648 154.501 100.397 155.812 101.105V92.0431C154.534 91.2591 152.862 90.6031 150.765 90.0971L150.755 90.0947ZM156.812 91.5V102.812C156.478 102.618 156.145 102.429 155.812 102.245C154.361 101.442 152.924 100.735 151.5 100.125C149.75 99.3333 147.688 98.9375 145.312 98.9375C143.938 98.9375 142.75 99.1458 141.75 99.5625C140.75 99.9792 140.25 100.667 140.25 101.625C140.25 102.667 140.854 103.458 142.062 104C143.271 104.5 144.75 105.083 146.5 105.75L151 107.438C154.042 108.604 156.188 110.188 157.438 112.188C158.729 114.188 159.375 116.188 159.375 118.188C159.375 120.854 158.604 123.229 157.062 125.312C155.521 127.354 153.438 128.979 150.812 130.188C148.188 131.354 145.25 131.938 142 131.938C139.5 131.938 137.021 131.5 134.562 130.625C132.104 129.75 129.958 128.667 128.125 127.375V116.062C128.454 116.31 128.788 116.549 129.125 116.782C130.836 117.96 132.648 118.949 134.562 119.75C136.896 120.708 139.229 121.188 141.562 121.188C143.021 121.188 144.188 121.021 145.062 120.688C145.979 120.312 146.438 119.688 146.438 118.812C146.438 118.188 146.104 117.646 145.438 117.188C144.771 116.729 143.875 116.333 142.75 116L136.812 114.125C134.479 113.375 132.667 112.354 131.375 111.062C130.083 109.771 129.188 108.333 128.688 106.75C128.188 105.125 127.938 103.479 127.938 101.812C127.938 98.8542 128.688 96.375 130.188 94.375C131.688 92.3333 133.646 90.7917 136.062 89.75C138.479 88.7083 141.042 88.1875 143.75 88.1875C146.208 88.1875 148.625 88.5 151 89.125C153.417 89.7083 155.354 90.5 156.812 91.5ZM191.938 109.375L206 89.125H191.625L184.562 101.812L176.25 89.125H161.875L176.562 110.312L161.875 131H176.25L183.938 118.5L191.625 131H206L191.938 109.375ZM204.157 130L190.733 109.357L204.088 90.125H192.213L184.632 103.743L175.71 90.125H163.785L177.784 110.319L163.811 130H175.691L183.938 116.591L192.184 130H204.157Z" fill="black"/>
</g>
<defs>
<filter id="filter0_d_213_10" x="19.75" y="15.9375" width="179.5" height="64.5625" filterUnits="userSpaceOnUse" color-interpolation-filters="sRGB">
<feFlood flood-opacity="0" result="BackgroundImageFix"/>
<feColorMatrix in="SourceAlpha" type="matrix" values="0 0 0 0 0 0 0 0 0 0 0 0 0 0 0 0 0 0 127 0" result="hardAlpha"/>
<feOffset dy="4"/>
<feGaussianBlur stdDeviation="2"/>
<feComposite in2="hardAlpha" operator="out"/>
<feColorMatrix type="matrix" values="0 0 0 0 0 0 0 0 0 0 0 0 0 0 0 0 0 0 0.25 0"/>
<feBlend mode="normal" in2="BackgroundImageFix" result="effect1_dropShadow_213_10"/>
<feBlend mode="normal" in="SourceGraphic" in2="effect1_dropShadow_213_10" result="shape"/>
</filter>
<filter id="filter1_d_213_10" x="63" y="8" width="70.0805" height="62" filterUnits="userSpaceOnUse" color-interpolation-filters="sRGB">
<feFlood flood-opacity="0" result="BackgroundImageFix"/>
<feColorMatrix in="SourceAlpha" type="matrix" values="0 0 0 0 0 0 0 0 0 0 0 0 0 0 0 0 0 0 127 0" result="hardAlpha"/>
<feOffset dy="4"/>
<feGaussianBlur stdDeviation="2"/>
<feComposite in2="hardAlpha" operator="out"/>
<feColorMatrix type="matrix" values="0 0 0 0 0 0 0 0 0 0 0 0 0 0 0 0 0 0 0.25 0"/>
<feBlend mode="normal" in2="BackgroundImageFix" result="effect1_dropShadow_213_10"/>
<feBlend mode="normal" in="SourceGraphic" in2="effect1_dropShadow_213_10" result="shape"/>
</filter>
<filter id="filter2_d_213_10" x="0.625" y="88.1875" width="209.375" height="66.75" filterUnits="userSpaceOnUse" color-interpolation-filters="sRGB">
<feFlood flood-opacity="0" result="BackgroundImageFix"/>
<feColorMatrix in="SourceAlpha" type="matrix" values="0 0 0 0 0 0 0 0 0 0 0 0 0 0 0 0 0 0 127 0" result="hardAlpha"/>
<feOffset dy="4"/>
<feGaussianBlur stdDeviation="2"/>
<feComposite in2="hardAlpha" operator="out"/>
<feColorMatrix type="matrix" values="0 0 0 0 0 0 0 0 0 0 0 0 0 0 0 0 0 0 0.25 0"/>
<feBlend mode="normal" in2="BackgroundImageFix" result="effect1_dropShadow_213_10"/>
<feBlend mode="normal" in="SourceGraphic" in2="effect1_dropShadow_213_10" result="shape"/>
</filter>
<filter id="filter3_d_213_10" x="0.625" y="88.1875" width="209.375" height="66.75" filterUnits="userSpaceOnUse" color-interpolation-filters="sRGB">
<feFlood flood-opacity="0" result="BackgroundImageFix"/>
<feColorMatrix in="SourceAlpha" type="matrix" values="0 0 0 0 0 0 0 0 0 0 0 0 0 0 0 0 0 0 127 0" result="hardAlpha"/>
<feOffset dy="4"/>
<feGaussianBlur stdDeviation="2"/>
<feComposite in2="hardAlpha" operator="out"/>
<feColorMatrix type="matrix" values="0 0 0 0 0 0 0 0 0 0 0 0 0 0 0 0 0 0 0.25 0"/>
<feBlend mode="normal" in2="BackgroundImageFix" result="effect1_dropShadow_213_10"/>
<feBlend mode="normal" in="SourceGraphic" in2="effect1_dropShadow_213_10" result="shape"/>
</filter>
<linearGradient id="paint0_linear_213_10" x1="181.5" y1="89" x2="182" y2="148" gradientUnits="userSpaceOnUse">
<stop stop-color="#FF4D00"/>
<stop offset="1" stop-color="#5A1C01"/>
</linearGradient>
<linearGradient id="paint1_linear_213_10" x1="181.5" y1="89" x2="182" y2="148" gradientUnits="userSpaceOnUse">
<stop stop-color="#FF4D00"/>
<stop offset="1" stop-color="#5A1C01"/>
</linearGradient>
<linearGradient id="paint2_linear_213_10" x1="181.5" y1="89" x2="182" y2="148" gradientUnits="userSpaceOnUse">
<stop stop-color="#FF4D00"/>
<stop offset="1" stop-color="#5A1C01"/>
</linearGradient>
<linearGradient id="paint3_linear_213_10" x1="181.5" y1="89" x2="182" y2="148" gradientUnits="userSpaceOnUse">
<stop stop-color="#FF4D00"/>
<stop offset="1" stop-color="#5A1C01"/>
</linearGradient>
<linearGradient id="paint4_linear_213_10" x1="181.5" y1="89" x2="182" y2="148" gradientUnits="userSpaceOnUse">
<stop stop-color="#FF4D00"/>
<stop offset="1" stop-color="#5A1C01"/>
</linearGradient>
<linearGradient id="paint5_linear_213_10" x1="181.5" y1="89" x2="182" y2="148" gradientUnits="userSpaceOnUse">
<stop stop-color="#FF4D00"/>
<stop offset="1" stop-color="#5A1C01"/>
</linearGradient>
</defs>
</svg>
