<svg width="193" height="193" viewBox="0 0 193 193" fill="none" xmlns="http://www.w3.org/2000/svg">
<rect width="193" height="193" fill="#D9D9D9"/>
<g filter="url(#filter0_d_202_6)">
<path d="M33.6562 113L6 101.531V94.5L33.6562 83.0312V91.4688L16.5312 97.2812L14.4062 98.0625L16.5312 98.8125L33.6562 104.531V113Z" fill="black"/>
<path d="M66.0312 108H52.375L49.6875 117.5H40.4375L55.3438 72H63.3125L77.9375 117.5H68.6875L66.0312 108ZM54.5312 100.531H63.9688L59.3125 83.7812L54.5312 100.531Z" fill="black"/>
<path d="M84.0312 72H110.344V79.0938H101.469V110.438H110.344V117.5H84.0312V110.438H92.6875V79.0938H84.0312V72Z" fill="black"/>
<path d="M131.406 121.406H123.312L140.344 72H148.438L131.406 121.406Z" fill="black"/>
<path d="M159.906 113.031V104.594L177.812 98.5938L179.719 97.9688L177.844 97.3438L159.906 91.4375V83.0312L188.031 94.4688V101.562L159.906 113.031Z" fill="black"/>
<path d="M6.5 94.8339L33.1562 83.7799V91.1104L16.3705 96.8078L16.3705 96.8076L16.3587 96.812L14.2337 97.5932L12.9311 98.0721L14.2398 98.534L16.3648 99.284L16.3648 99.2841L16.3729 99.2868L33.1562 104.891V112.251L6.5 101.197V94.8339ZM66.5128 107.865L66.4106 107.5H66.0312H52.375H51.9968L51.8939 107.864L49.3093 117H41.1275L55.7061 72.5H62.948L77.2516 117H69.0669L66.5128 107.865ZM54.0505 100.394L53.8686 101.031H54.5312H63.9688H64.6267L64.4505 100.397L59.7942 83.6473L59.3189 81.9373L58.8317 83.644L54.0505 100.394ZM92.6875 78.5938H84.5312V72.5H109.844V78.5938H101.469H100.969V79.0938V110.438V110.938H101.469H109.844V117H84.5312V110.938H92.6875H93.1875V110.438V79.0938V78.5938H92.6875ZM178 96.8688L160.406 91.0757V83.7743L187.531 94.8052V101.226L160.406 112.287V104.954L177.968 99.0689L177.971 99.0678L179.875 98.4439L181.312 97.9727L179.877 97.4944L178.002 96.8694L178 96.8688ZM147.736 72.5L131.05 120.906H124.014L140.7 72.5H147.736Z" stroke="black"/>
</g>
<defs>
<filter id="filter0_d_202_6" x="2" y="72" width="190.031" height="57.4062" filterUnits="userSpaceOnUse" color-interpolation-filters="sRGB">
<feFlood flood-opacity="0" result="BackgroundImageFix"/>
<feColorMatrix in="SourceAlpha" type="matrix" values="0 0 0 0 0 0 0 0 0 0 0 0 0 0 0 0 0 0 127 0" result="hardAlpha"/>
<feOffset dy="4"/>
<feGaussianBlur stdDeviation="2"/>
<feComposite in2="hardAlpha" operator="out"/>
<feColorMatrix type="matrix" values="0 0 0 0 0 0 0 0 0 0 0 0 0 0 0 0 0 0 0.25 0"/>
<feBlend mode="normal" in2="BackgroundImageFix" result="effect1_dropShadow_202_6"/>
<feBlend mode="normal" in="SourceGraphic" in2="effect1_dropShadow_202_6" result="shape"/>
</filter>
</defs>
</svg>
