<svg width="1235" height="1866" viewBox="0 0 1235 1866" fill="none" xmlns="http://www.w3.org/2000/svg">
<path fill-rule="evenodd" clip-rule="evenodd" d="M671.762 14.9803L583.3 263.239C581.44 268.46 583.613 274.262 588.445 276.976L1013.58 515.773C1015.63 516.922 1016.77 519.192 1016.49 521.52C1009.73 576.998 957.464 615.641 901.987 608.875C756.733 591.159 488.467 573.471 312.737 652.164C274.983 669.071 235.423 612.375 214.816 576.244C204.611 558.353 200.172 537.747 202.775 517.315C234.497 268.286 561.714 57.6698 656.259 1.65401C665.228 -3.65984 675.261 5.1602 671.762 14.9803ZM751.767 307.663L648.117 253.693C646.069 252.627 644.911 250.388 645.223 248.1L645.968 242.65C654.069 183.392 684.218 129.367 730.399 91.3602C733.686 88.6549 738.669 90.8279 738.9 95.0789C740.05 116.277 743.114 165.705 748.265 199.918C752.741 229.646 762.008 269.25 768.279 294.587C770.655 304.187 760.538 312.23 751.767 307.663ZM525.788 1403.2C278.217 1403.2 276.338 868.93 278.53 759.951C278.77 748.014 286.133 737.763 297.165 733.196C625.782 597.151 999.26 779.995 1093.35 1122.99L1162.81 1376.16C1166.54 1389.77 1156.31 1403.2 1142.2 1403.2H525.788ZM384.01 1480.88C333.56 1480.88 283.603 1490.81 236.993 1510.12C190.383 1529.43 148.032 1557.73 112.358 1593.4C76.6845 1629.07 48.3865 1671.42 29.08 1718.03C11.2256 1761.14 1.38434 1807.1 0.00492143 1853.68C-0.18108 1859.96 4.92955 1865.05 11.2121 1865.05H383.265V1865.07H850C900.451 1865.07 950.407 1855.13 997.017 1835.83C1043.63 1816.52 1085.98 1788.22 1121.65 1752.55C1157.33 1716.88 1185.62 1674.52 1204.93 1627.91C1222.79 1584.81 1232.63 1538.84 1234.01 1492.27C1234.19 1485.99 1229.08 1480.9 1222.8 1480.9L384.01 1480.89V1480.88ZM80.6641 1791.47C104.332 1648.06 228.53 1541.75 375.134 1541.75C379.308 1541.75 381.823 1546.38 379.555 1549.88L302.594 1668.79C300.126 1672.6 300.162 1677.51 302.685 1681.29L372.99 1786.5C378.041 1794.05 372.623 1804.19 363.532 1804.19H91.6853C84.8581 1804.19 79.5524 1798.21 80.6641 1791.47Z" fill="#1F1E1E"/>
</svg>
