<svg width="207" height="66" viewBox="0 0 207 66" fill="none" xmlns="http://www.w3.org/2000/svg">
<path fill-rule="evenodd" clip-rule="evenodd" d="M15.2504 13.3095L13.2421 18.4567C13.1999 18.565 13.2492 18.6853 13.3589 18.7415L23.0104 23.6926C23.0568 23.7165 23.0829 23.7635 23.0765 23.8118C22.923 24.9621 21.7365 25.7633 20.477 25.623C17.1794 25.2557 11.0892 24.8889 7.09973 26.5205C6.24264 26.871 5.34454 25.6955 4.87671 24.9464C4.64504 24.5755 4.54426 24.1482 4.60335 23.7246C5.32352 18.5614 12.7521 14.1946 14.8984 13.0332C15.1021 12.923 15.3298 13.1059 15.2504 13.3095ZM17.0669 19.3778L14.7138 18.2589C14.6673 18.2367 14.641 18.1903 14.6481 18.1429L14.665 18.0299C14.8489 16.8013 15.5334 15.6811 16.5818 14.8931C16.6564 14.837 16.7695 14.8821 16.7748 14.9702C16.8009 15.4097 16.8704 16.4345 16.9874 17.1439C17.089 17.7603 17.2993 18.5814 17.4417 19.1067C17.4957 19.3058 17.266 19.4725 17.0669 19.3778ZM11.9366 42.0921C6.31622 42.0921 6.27356 31.0149 6.32333 28.7554C6.32878 28.5079 6.49593 28.2954 6.74638 28.2007C14.2067 25.38 22.6855 29.171 24.8216 36.2824L26.3984 41.5316C26.4831 41.8137 26.2509 42.0921 25.9306 42.0921H11.9366ZM8.71787 43.7026C7.57254 43.7026 6.43842 43.9086 5.38027 44.3089C4.32211 44.7092 3.36065 45.2959 2.55078 46.0356C1.74091 46.7752 1.09848 47.6533 0.660179 48.6197C0.254846 49.5134 0.0314275 50.4664 0.000111727 51.432C-0.00411092 51.5622 0.111912 51.6679 0.25454 51.6679H8.70095V51.6682H19.2969C20.4422 51.6682 21.5763 51.4623 22.6345 51.062C23.6926 50.6617 24.6541 50.075 25.464 49.3353C26.2738 48.5957 26.9163 47.7176 27.3546 46.7512C27.7599 45.8575 27.9833 44.9045 28.0146 43.9388C28.0189 43.8086 27.9028 43.703 27.7602 43.703L8.71787 43.703V43.7026ZM1.83125 50.1423C2.36857 47.1689 5.18814 44.9648 8.51637 44.9648C8.61112 44.9648 8.66821 45.0607 8.61673 45.1333L6.86954 47.5986C6.81352 47.6777 6.81434 47.7796 6.87162 47.8578L8.46769 50.0392C8.58236 50.1959 8.45936 50.406 8.25297 50.406H2.08146C1.92646 50.406 1.80601 50.282 1.83125 50.1423Z" fill="#FA7661"/>
<path d="M37.5759 48.9998L48.4719 17.0798H51.8799L40.9839 48.9998H37.5759Z" fill="#1F1E1E"/>
<path d="M71.5269 48.9998L59.9589 17.0798H64.1349L73.0629 41.7038C73.5909 43.0958 74.0709 44.5358 74.4549 45.9278C74.8389 44.5358 75.3189 43.0958 75.7989 41.7038L84.7749 17.0798H88.8069L77.2869 48.9998H71.5269Z" fill="#1F1E1E"/>
<path d="M106.155 49.8158C95.0672 49.8158 90.2192 42.6638 90.2192 33.0158C90.2192 23.5118 95.0672 16.2158 106.155 16.2158C117.243 16.2158 122.043 23.5598 122.043 33.0158C122.043 42.6158 117.243 49.8158 106.155 49.8158ZM94.3952 33.0158C94.3952 41.9918 97.9952 46.5038 106.155 46.5038C114.315 46.5038 117.867 41.9918 117.867 33.0158C117.867 24.0398 114.315 19.5278 106.155 19.5278C97.9952 19.5278 94.3952 24.0398 94.3952 33.0158Z" fill="#1F1E1E"/>
<path d="M124.498 48.9998V45.7838H131.266V20.2958H124.498V17.0798H142.018V20.2958H135.25V45.7838H142.018V48.9998H124.498Z" fill="#1F1E1E"/>
<path d="M160.53 49.8158C149.538 49.8158 144.594 42.7118 144.594 33.0158C144.594 23.4158 149.634 16.2158 160.626 16.2158C170.466 16.2158 174.93 21.0638 175.746 28.9838H171.666C170.994 22.7438 167.49 19.5278 160.578 19.5278C152.562 19.5278 148.77 24.0878 148.77 33.0158C148.77 41.9438 152.466 46.5038 160.482 46.5038C167.73 46.5038 171.378 42.7598 171.762 36.2798H175.842C175.362 44.3918 170.802 49.8158 160.53 49.8158Z" fill="#1F1E1E"/>
<path d="M184.843 34.1678V45.7838H204.619V48.9998H180.859V17.0798H204.475V20.2958H184.843V30.9998H203.035V34.1678H184.843Z" fill="#1F1E1E"/>
</svg>
